<?xml version="1.0" encoding="utf-8"?>
<!-- Generator: Adobe Illustrator 20.1.0, SVG Export Plug-In . SVG Version: 6.00 Build 0)  -->
<svg version="1.1" id="body_1_" xmlns="http://www.w3.org/2000/svg" xmlns:xlink="http://www.w3.org/1999/xlink" x="0px" y="0px"
	 viewBox="0 0 760 1000" style="enable-background:new 0 0 760 1000;" xml:space="preserve">
<style type="text/css">
	.st0{fill:#FFFFFF;}
	.st1{fill:#040000;}
	.st2{fill:#FFFFFF;stroke:#040000;stroke-width:8;stroke-miterlimit:10;}
</style>
<g id="ソール">
	<g>
		
			<ellipse transform="matrix(0.7458 -0.6662 0.6662 0.7458 -342.9652 442.8727)" class="st0" cx="408.8" cy="670.8" rx="373.9" ry="237.8"/>
		<path class="st1" d="M571.8,853.3c0,0-1.4,1.3-4.2,3.7c-2.7,2.4-7,6.1-12.5,10.7c-5.5,4.6-12.5,10.2-20.8,16.6
			c-8.3,6.3-18.1,13.3-29.3,20.8s-24,15.2-38.2,23.1c-14.2,7.8-30,15.6-47.3,22.9c-17.3,7.3-36.2,14-56.6,19.5s-42.3,9.7-65.5,11.5
			c-11.6,0.9-23.5,1.2-35.7,0.6c-12.1-0.5-24.5-2-36.9-4.4c-6.2-1.3-12.4-2.8-18.6-4.6c-6.2-1.9-12.3-4-18.4-6.4
			c-6.1-2.5-12.1-5.3-17.9-8.5c-5.9-3.2-11.6-6.8-17.1-10.7s-10.8-8.2-15.9-12.9c-5-4.6-9.9-9.7-14.3-15c-1.1-1.2-2.2-2.7-3.3-4.1
			l-1.6-2.1l-1.5-2.1c-2.1-2.8-4-5.7-5.9-8.7c-3.8-5.9-7.1-12.2-10.1-18.6c-6-12.9-10.3-26.6-13.2-40.7c-1.5-7.1-2.4-14.2-3.1-21.4
			s-1-14.5-1-21.8c0-29.2,5.2-58.5,13.9-86.9c8.7-28.5,21-56.1,35.7-82.4c14.9-26.3,32.1-51.5,51.5-75.1
			c19.3-23.7,40.7-45.7,63.6-66.2c22.8-20.3,47.3-39,73-55.5s52.6-30.9,80.5-42.6s56.7-20.7,85.9-26.1c29.2-5.4,58.9-7.1,87.8-3.9
			c7.2,0.8,14.4,1.9,21.5,3.4s14.1,3.3,20.9,5.5c13.7,4.4,26.8,10.2,38.8,17.7c6,3.7,11.8,7.7,17.3,12.1c5.4,4.4,10.6,9.1,15.4,14.2
			l1.8,1.9l0.9,0.9l0.4,0.5c0.1,0.1,0.4,0.5,0.5,0.6c1.1,1.3,2.2,2.5,3.3,3.8c2.2,2.7,4.4,5.4,6.4,8.2c4,5.5,7.7,11.2,11,17.2
			c3.3,5.9,6.1,12,8.7,18.1c2.5,6.2,4.6,12.4,6.4,18.7c1.8,6.3,3.2,12.6,4.3,18.9s1.9,12.6,2.5,18.9c1,12.6,1.1,25,0.2,37.1
			c-0.8,12.1-2.4,23.9-4.6,35.3c-4.4,22.8-11,44.1-18.7,63.8c-7.7,19.6-16.6,37.6-25.7,54c-18.4,32.8-38,59.1-55.2,79.8
			s-32.2,35.7-42.5,45.7c-5.2,5-9.2,8.8-12,11.3C573.2,852,571.8,853.3,571.8,853.3L571.8,853.3z M562.6,843c0,0,1.4-1.3,4.1-3.7
			c2.7-2.4,6.7-6.1,11.8-10.9c10.2-9.7,24.9-24.3,41.8-44.4c16.9-20.1,36.2-45.7,54.3-77.5c9-15.9,17.7-33.3,25.3-52.3
			s14.2-39.6,18.6-61.5c2.2-11,3.8-22.3,4.7-33.8c0.9-11.6,0.9-23.4,0.1-35.3c-0.5-6-1.2-12-2.2-18s-2.3-12-3.9-17.9
			c-1.7-5.9-3.6-11.8-5.9-17.6c-2.3-5.8-5-11.5-8-17c-12-22.2-30.2-41.9-52.9-55.8c-11.3-7-23.6-12.6-36.6-16.9
			c-6.5-2.2-13.1-3.9-19.9-5.4c-6.7-1.5-13.6-2.6-20.5-3.4c-27.8-3.3-56.6-1.6-85,3.5c-28.5,5.2-56.7,14-84.1,25.3
			c-27.3,11.5-53.9,25.5-79.1,41.8C300,458.4,276,476.8,253.5,497c-44.8,40.2-83.9,87.3-112.7,139.1c-14.3,25.9-26.1,53-34.4,80.7
			s-13.1,56.1-12.9,84c0,7,0.4,13.9,1.1,20.7s1.7,13.6,3.1,20.3c2.8,13.3,6.9,26.2,12.7,38.1c2.8,6,6,11.8,9.6,17.2
			c1.8,2.7,3.6,5.4,5.6,8l1.4,2l1.5,1.9c1,1.2,1.9,2.5,3.1,3.7c4.2,5,8.7,9.6,13.4,13.9c4.7,4.3,9.6,8.3,14.8,11.8
			c5.2,3.6,10.5,6.9,16,9.8c5.5,2.9,11.1,5.5,16.8,7.8s11.5,4.2,17.3,5.9s11.7,3,17.5,4.2c11.7,2.2,23.5,3.5,35,3.9
			c11.6,0.5,23,0.1,34.1-0.8c22.3-1.9,43.4-6,63.1-11.5c19.7-5.4,38-12.1,54.8-19.3c33.6-14.4,61.2-30.7,83.1-45.1
			c21.9-14.6,38.1-27.4,49-36.4c5.4-4.5,9.5-7.9,12.2-10.4C561.2,844.2,562.6,842.9,562.6,843L562.6,843z"/>
	</g>
</g>
<g id="body">
	<g>
		
			<ellipse transform="matrix(0.7522 -0.6589 0.6589 0.7522 -330.8833 422.0913)" class="st0" cx="395.8" cy="651" rx="373.6" ry="216.6"/>
		<path class="st1" d="M681.2,401.2c0,0,1.2,1.4,3.5,4.1c1.2,1.5,2.7,3.4,4.3,5.6c0.8,1.1,1.7,2.3,2.6,3.6c0.9,1.3,1.8,2.8,2.8,4.3
			c3.8,6.1,8.1,14,11.9,23.7c3.8,9.7,7.1,21.3,9.1,34.6c4.1,26.4,2.7,59.3-6.4,94.9c-9,35.6-25.3,74.1-48.6,112.5
			c-5.8,9.6-12.1,19.2-18.8,28.8s-13.8,19.1-21.4,28.6c-15.1,18.9-31.9,37.5-50.2,55.5s-38.3,35.3-59.8,51.7
			c-21.4,16.4-44.5,31.7-68.9,45.5c-12.2,6.9-24.8,13.5-37.7,19.5c-12.9,6-26.2,11.7-39.8,16.6c-27.2,9.9-55.8,17.5-85.4,21.3
			c-7.4,0.9-14.8,1.6-22.3,2s-15,0.4-22.6,0.2c-15.1-0.5-30.3-2.4-45.1-6c-14.9-3.7-29.4-9.2-42.9-16.9s-25.7-17.7-35.9-29.5
			s-18.2-25.3-23.8-39.7c-5.7-14.4-8.9-29.5-10.4-44.6c-1.4-15.1-1.1-30.3,0.7-45.2c0.9-7.4,2-14.8,3.5-22.1s3.2-14.5,5.2-21.6
			c7.9-28.5,19.5-55.4,33.2-80.7s29.3-49,46.3-71.1s35.3-42.5,54.2-61.4c19-18.9,38.7-36.2,58.8-51.9
			c40.2-31.4,81.7-56.4,122.3-74.7c40.6-18.4,80.2-30,116.3-34.9c36.1-5,68.6-2.7,94.2,4.5c12.8,3.5,23.9,8.1,33.1,13
			c9.2,4.9,16.5,10,22.1,14.6c5.6,4.5,9.5,8.5,12.2,11.1C679.8,399.7,681.1,401.1,681.2,401.2L681.2,401.2z M672.5,408.7
			c0,0-1.2-1.3-3.5-3.8c-2.4-2.4-5.9-6.1-11-10.3c-5.1-4.2-11.7-9.1-20.2-13.7c-8.4-4.7-18.7-9.1-30.7-12.6
			c-24-7.1-55.2-9.9-90.4-5.7c-35.2,4.1-74.4,15-114.5,32.8c-40.1,17.9-81.3,42.6-120.7,74c-19.7,15.6-39.1,32.9-57.7,51.7
			s-36.4,39.2-52.8,61.2c-8.2,11-16.1,22.3-23.6,34.1c-3.8,5.9-7.3,11.8-10.9,17.9c-3.5,6.1-6.9,12.2-10.1,18.5
			c-12.9,25-23.8,51.5-31,79.1c-1.8,6.9-3.3,13.9-4.6,20.9c-1.3,7-2.3,14.1-3,21.2c-1.4,14.2-1.5,28.5,0,42.6
			c1.6,14.1,4.8,27.9,10.2,40.9c5.3,13,12.7,25,22,35.4s20.3,19.1,32.6,25.9c12.2,6.8,25.5,11.6,39.2,14.7
			c13.7,3.1,27.8,4.7,41.9,4.9c14.1,0.3,28.3-0.8,42.3-2.6c28-3.9,55.4-11.4,81.5-21.3c6.5-2.4,13-5.1,19.4-7.8s12.7-5.5,18.9-8.5
			c12.5-5.9,24.6-12.3,36.4-19.1s23.3-13.9,34.4-21.3c11.1-7.5,21.9-15.2,32.3-23.1c20.9-15.9,40.2-32.8,58.2-50.1
			c18-17.4,34.4-35.3,49.3-53.5c7.4-9.1,14.5-18.2,21.1-27.4s12.9-18.4,18.7-27.6c11.6-18.4,21.5-36.8,29.7-54.8
			s14.6-35.7,19.2-52.6c9.4-33.9,11.2-64.8,7.8-89.5c-1.7-12.3-4.6-23.1-7.9-32c-3.3-9-7.2-16.2-10.6-21.9c-0.9-1.4-1.7-2.7-2.5-3.9
			c-0.8-1.2-1.6-2.3-2.3-3.4c-1.5-2-2.7-3.6-3.7-5C673.6,410,672.4,408.6,672.5,408.7L672.5,408.7z"/>
	</g>
</g>
<g id="くつひも">
	<g>
		<path d="M31.7,620.2c0,0,4.4,2.8,11.6,8c3.7,2.6,8,5.8,13,9.5c2.5,1.9,5.1,3.9,7.9,6c2.7,2.1,5.6,4.4,8.6,6.8
			c3,2.4,6.1,4.9,9.2,7.5c3.2,2.6,6.4,5.3,9.8,8.1c3.3,2.8,6.7,5.7,10.2,8.7c3.4,3,7,6.1,10.5,9.2c14.2,12.6,29.1,26.3,43.6,40.4
			c7.3,7,14.5,14.2,21.5,21.2c7,7.1,13.9,14.1,20.4,21c3.3,3.4,6.5,6.8,9.6,10.2s6.2,6.6,9.1,9.9c5.9,6.5,11.3,12.7,16.3,18.4
			c5,5.8,9.5,11.1,13.4,15.9c3.9,4.8,7.3,9,10.1,12.6c2.8,3.5,4.9,6.3,6.3,8.3c1.4,1.9,2.2,3,2.2,3c0.4,0.6,0.3,1.4-0.3,1.8
			c-0.5,0.3-1,0.3-1.5,0c0,0-1.1-0.7-3.1-2c-2-1.4-4.9-3.3-8.5-6c-3.6-2.6-8-5.8-13-9.5s-10.5-8-16.5-12.8
			c-6-4.7-12.4-9.9-19.1-15.5c-3.4-2.8-6.8-5.7-10.3-8.6c-3.5-2.9-7-6-10.6-9.1c-7.2-6.2-14.5-12.8-21.9-19.5s-14.8-13.6-22.1-20.6
			c-14.7-13.9-29-28.2-42.2-41.9c-3.3-3.4-6.5-6.8-9.6-10.2s-6.1-6.6-9.1-9.8c-2.9-3.2-5.8-6.4-8.5-9.4c-2.7-3.1-5.3-6.1-7.8-8.9
			c-2.5-2.9-4.9-5.7-7.1-8.3c-2.2-2.7-4.3-5.2-6.3-7.6c-3.9-4.8-7.3-9-10.1-12.6c-5.5-7.1-8.4-11.3-8.4-11.3
			c-0.6-0.9-0.4-2.1,0.5-2.7C30.2,619.8,31.1,619.8,31.7,620.2z"/>
	</g>
	<g>
		<path d="M73.8,578.1c0,0,4.4,2.8,11.6,8c3.7,2.6,8,5.8,13,9.5c2.5,1.9,5.1,3.9,7.9,6c2.7,2.1,5.6,4.4,8.6,6.8
			c3,2.4,6.1,4.9,9.2,7.5c3.2,2.6,6.4,5.3,9.8,8.1c3.3,2.8,6.7,5.7,10.2,8.7c3.4,3,7,6.1,10.5,9.2c14.2,12.6,29.1,26.3,43.6,40.4
			c7.3,7,14.5,14.2,21.5,21.2c7,7.1,13.9,14.1,20.4,21c3.3,3.4,6.5,6.8,9.6,10.2s6.2,6.6,9.1,9.9c5.9,6.5,11.3,12.7,16.3,18.4
			c5,5.8,9.5,11.1,13.4,15.9c3.9,4.8,7.3,9,10.1,12.6c2.8,3.5,4.9,6.3,6.3,8.3c1.4,1.9,2.2,3,2.2,3c0.4,0.6,0.3,1.4-0.3,1.8
			c-0.5,0.3-1,0.3-1.5,0c0,0-1.1-0.7-3.1-2c-2-1.4-4.9-3.3-8.5-6c-3.6-2.6-8-5.8-13-9.5s-10.5-8-16.5-12.8
			c-6-4.7-12.4-9.9-19.1-15.5c-3.4-2.8-6.8-5.7-10.3-8.6c-3.5-2.9-7-6-10.6-9.1c-7.2-6.2-14.5-12.8-21.9-19.5S187.5,708,180.2,701
			c-14.7-13.9-29-28.2-42.2-41.9c-3.3-3.4-6.5-6.8-9.6-10.2c-3.1-3.4-6.1-6.6-9.1-9.8c-2.9-3.2-5.8-6.4-8.5-9.4
			c-2.7-3.1-5.3-6.1-7.8-8.9c-2.5-2.9-4.9-5.7-7.1-8.3c-2.2-2.7-4.3-5.2-6.3-7.6c-3.9-4.8-7.3-9-10.1-12.6
			c-5.5-7.1-8.4-11.3-8.4-11.3c-0.6-0.9-0.4-2.1,0.5-2.7C72.3,577.7,73.1,577.7,73.8,578.1z"/>
	</g>
	<g>
		<path d="M115.8,536.1c0,0,4.4,2.8,11.6,8c3.7,2.6,8,5.8,13,9.5c2.5,1.9,5.1,3.9,7.9,6c2.7,2.1,5.6,4.4,8.6,6.8
			c3,2.4,6.1,4.9,9.2,7.5c3.2,2.6,6.4,5.3,9.8,8.1c3.3,2.8,6.7,5.7,10.2,8.7c3.4,3,7,6.1,10.5,9.2c14.2,12.6,29.1,26.3,43.6,40.4
			c7.3,7,14.5,14.2,21.5,21.2c7,7.1,13.9,14.1,20.4,21c3.3,3.4,6.5,6.8,9.6,10.2s6.2,6.6,9.1,9.9c5.9,6.5,11.3,12.7,16.3,18.4
			c5,5.8,9.5,11.1,13.4,15.9c3.9,4.8,7.3,9,10.1,12.6c2.8,3.5,4.9,6.3,6.3,8.3c1.4,1.9,2.2,3,2.2,3c0.4,0.6,0.3,1.4-0.3,1.8
			c-0.5,0.3-1,0.3-1.5,0c0,0-1.1-0.7-3.1-2c-2-1.4-4.9-3.3-8.5-6c-3.6-2.6-8-5.8-13-9.5s-10.5-8-16.5-12.8
			c-6-4.7-12.4-9.9-19.1-15.5c-3.4-2.8-6.8-5.7-10.3-8.6c-3.5-2.9-7-6-10.6-9.1c-7.2-6.2-14.5-12.8-21.9-19.5S229.5,666,222.2,659
			c-14.7-13.9-29-28.2-42.2-41.9c-3.3-3.4-6.5-6.8-9.6-10.2s-6.1-6.6-9.1-9.8c-2.9-3.2-5.8-6.4-8.5-9.4c-2.7-3.1-5.3-6.1-7.8-8.9
			c-2.5-2.9-4.9-5.7-7.1-8.3c-2.2-2.7-4.3-5.2-6.3-7.6c-3.9-4.8-7.3-9-10.1-12.6c-5.5-7.1-8.4-11.3-8.4-11.3
			c-0.6-0.9-0.4-2.1,0.5-2.7C114.3,535.7,115.2,535.7,115.8,536.1z"/>
	</g>
</g>
<g id="穴">
	
		<ellipse transform="matrix(0.8522 -0.5232 0.5232 0.8522 -211.3006 306.2845)" class="st2" cx="436.5" cy="527.2" rx="196.9" ry="134.8"/>
</g>
</svg>
