<?xml version="1.0" encoding="utf-8"?>
<!-- Generator: Adobe Illustrator 20.1.0, SVG Export Plug-In . SVG Version: 6.00 Build 0)  -->
<svg version="1.1" id="body_1_" xmlns="http://www.w3.org/2000/svg" xmlns:xlink="http://www.w3.org/1999/xlink" x="0px" y="0px"
	 viewBox="0 0 760 1000" style="enable-background:new 0 0 760 1000;" xml:space="preserve">
<style type="text/css">
	.st0{fill:#7D553F;}
	.st1{fill:#3E7B43;}
	.st2{fill:#040000;}
	.st3{fill:#7A7040;}
</style>
<g id="ソール">
	
		<ellipse transform="matrix(0.7458 -0.6662 0.6662 0.7458 -342.9652 442.8727)" class="st0" cx="408.8" cy="670.8" rx="373.9" ry="237.8"/>
</g>
<g id="body">
	
		<ellipse transform="matrix(0.7522 -0.6589 0.6589 0.7522 -330.8833 422.0913)" class="st1" cx="395.8" cy="651" rx="373.6" ry="216.6"/>
</g>
<g id="くつひも">
	<g>
		<path class="st2" d="M31.7,620.2c0,0,4.4,2.8,11.6,8c3.7,2.6,8,5.8,13,9.5c2.5,1.9,5.1,3.9,7.9,6c2.7,2.1,5.6,4.4,8.6,6.8
			c3,2.4,6.1,4.9,9.2,7.5c3.2,2.6,6.4,5.3,9.8,8.1c3.3,2.8,6.7,5.7,10.2,8.7c3.4,3,7,6.1,10.5,9.2c14.2,12.6,29.1,26.3,43.6,40.4
			c7.3,7,14.5,14.2,21.5,21.2c7,7.1,13.9,14.1,20.4,21c3.3,3.4,6.5,6.8,9.6,10.2s6.2,6.6,9.1,9.9c5.9,6.5,11.3,12.7,16.3,18.4
			c5,5.8,9.5,11.1,13.4,15.9c3.9,4.8,7.3,9,10.1,12.6c2.8,3.5,4.9,6.3,6.3,8.3c1.4,1.9,2.2,3,2.2,3c0.4,0.6,0.3,1.4-0.3,1.8
			c-0.5,0.3-1,0.3-1.5,0c0,0-1.1-0.7-3.1-2c-2-1.4-4.9-3.3-8.5-6c-3.6-2.6-8-5.8-13-9.5s-10.5-8-16.5-12.8
			c-6-4.7-12.4-9.9-19.1-15.5c-3.4-2.8-6.8-5.7-10.3-8.6c-3.5-2.9-7-6-10.6-9.1c-7.2-6.2-14.5-12.8-21.9-19.5s-14.8-13.6-22.1-20.6
			c-14.7-13.9-29-28.2-42.2-41.9c-3.3-3.4-6.5-6.8-9.6-10.2s-6.1-6.6-9.1-9.8c-2.9-3.2-5.8-6.4-8.5-9.4c-2.7-3.1-5.3-6.1-7.8-8.9
			c-2.5-2.9-4.9-5.7-7.1-8.3c-2.2-2.7-4.3-5.2-6.3-7.6c-3.9-4.8-7.3-9-10.1-12.6c-5.5-7.1-8.4-11.3-8.4-11.3
			c-0.6-0.9-0.4-2.1,0.5-2.7C30.2,619.8,31.1,619.8,31.7,620.2z"/>
	</g>
	<g>
		<path class="st2" d="M73.8,578.1c0,0,4.4,2.8,11.6,8c3.7,2.6,8,5.8,13,9.5c2.5,1.9,5.1,3.9,7.9,6c2.7,2.1,5.6,4.4,8.6,6.8
			c3,2.4,6.1,4.9,9.2,7.5c3.2,2.6,6.4,5.3,9.8,8.1c3.3,2.8,6.7,5.7,10.2,8.7c3.4,3,7,6.1,10.5,9.2c14.2,12.6,29.1,26.3,43.6,40.4
			c7.3,7,14.5,14.2,21.5,21.2c7,7.1,13.9,14.1,20.4,21c3.3,3.4,6.5,6.8,9.6,10.2s6.2,6.6,9.1,9.9c5.9,6.5,11.3,12.7,16.3,18.4
			c5,5.8,9.5,11.1,13.4,15.9c3.9,4.8,7.3,9,10.1,12.6c2.8,3.5,4.9,6.3,6.3,8.3c1.4,1.9,2.2,3,2.2,3c0.4,0.6,0.3,1.4-0.3,1.8
			c-0.5,0.3-1,0.3-1.5,0c0,0-1.1-0.7-3.1-2c-2-1.4-4.9-3.3-8.5-6c-3.6-2.6-8-5.8-13-9.5s-10.5-8-16.5-12.8
			c-6-4.7-12.4-9.9-19.1-15.5c-3.4-2.8-6.8-5.7-10.3-8.6c-3.5-2.9-7-6-10.6-9.1c-7.2-6.2-14.5-12.8-21.9-19.5S187.5,708,180.2,701
			c-14.7-13.9-29-28.2-42.2-41.9c-3.3-3.4-6.5-6.8-9.6-10.2c-3.1-3.4-6.1-6.6-9.1-9.8c-2.9-3.2-5.8-6.4-8.5-9.4
			c-2.7-3.1-5.3-6.1-7.8-8.9c-2.5-2.9-4.9-5.7-7.1-8.3c-2.2-2.7-4.3-5.2-6.3-7.6c-3.9-4.8-7.3-9-10.1-12.6
			c-5.5-7.1-8.4-11.3-8.4-11.3c-0.6-0.9-0.4-2.1,0.5-2.7C72.3,577.7,73.1,577.7,73.8,578.1z"/>
	</g>
	<g>
		<path class="st2" d="M115.8,536.1c0,0,4.4,2.8,11.6,8c3.7,2.6,8,5.8,13,9.5c2.5,1.9,5.1,3.9,7.9,6c2.7,2.1,5.6,4.4,8.6,6.8
			c3,2.4,6.1,4.9,9.2,7.5c3.2,2.6,6.4,5.3,9.8,8.1c3.3,2.8,6.7,5.7,10.2,8.7c3.4,3,7,6.1,10.5,9.2c14.2,12.6,29.1,26.3,43.6,40.4
			c7.3,7,14.5,14.2,21.5,21.2c7,7.1,13.9,14.1,20.4,21c3.3,3.4,6.5,6.8,9.6,10.2s6.2,6.6,9.1,9.9c5.9,6.5,11.3,12.7,16.3,18.4
			c5,5.8,9.5,11.1,13.4,15.9c3.9,4.8,7.3,9,10.1,12.6c2.8,3.5,4.9,6.3,6.3,8.3c1.4,1.9,2.2,3,2.2,3c0.4,0.6,0.3,1.4-0.3,1.8
			c-0.5,0.3-1,0.3-1.5,0c0,0-1.1-0.7-3.1-2c-2-1.4-4.9-3.3-8.5-6c-3.6-2.6-8-5.8-13-9.5s-10.5-8-16.5-12.8
			c-6-4.7-12.4-9.9-19.1-15.5c-3.4-2.8-6.8-5.7-10.3-8.6c-3.5-2.9-7-6-10.6-9.1c-7.2-6.2-14.5-12.8-21.9-19.5S229.5,666,222.2,659
			c-14.7-13.9-29-28.2-42.2-41.9c-3.3-3.4-6.5-6.8-9.6-10.2s-6.1-6.6-9.1-9.8c-2.9-3.2-5.8-6.4-8.5-9.4c-2.7-3.1-5.3-6.1-7.8-8.9
			c-2.5-2.9-4.9-5.7-7.1-8.3c-2.2-2.7-4.3-5.2-6.3-7.6c-3.9-4.8-7.3-9-10.1-12.6c-5.5-7.1-8.4-11.3-8.4-11.3
			c-0.6-0.9-0.4-2.1,0.5-2.7C114.3,535.7,115.2,535.7,115.8,536.1z"/>
	</g>
</g>
<g id="穴">
	
		<ellipse transform="matrix(0.8522 -0.5232 0.5232 0.8522 -211.3006 306.2845)" class="st3" cx="436.5" cy="527.2" rx="196.9" ry="134.8"/>
</g>
</svg>
