<?xml version="1.0" encoding="utf-8"?>
<!-- Generator: Adobe Illustrator 20.1.0, SVG Export Plug-In . SVG Version: 6.00 Build 0)  -->
<svg version="1.1" id="body_1_" xmlns="http://www.w3.org/2000/svg" xmlns:xlink="http://www.w3.org/1999/xlink" x="0px" y="0px"
	 viewBox="0 0 760 1000" style="enable-background:new 0 0 760 1000;" xml:space="preserve">
<style type="text/css">
	.st0{fill:none;}
	.st1{fill:#FFFFFF;stroke:#FFFFFF;stroke-width:8;stroke-miterlimit:10;}
	.st2{fill:none;stroke:#040000;stroke-width:8;stroke-miterlimit:10;}
	.st3{fill:#FFFFFF;stroke:#040000;stroke-width:8;stroke-miterlimit:10;}
</style>
<g id="mask">
	<path class="st0" d="M588,566c-0.2,0.3-0.4,0.6-0.6,0.9C587.6,566.6,587.8,566.3,588,566z"/>
	<path class="st0" d="M537.6,620.4c-0.5,0.4-1.1,0.9-1.6,1.3C536.5,621.3,537,620.9,537.6,620.4z"/>
	<path class="st0" d="M533.7,623.5c-0.6,0.4-1.1,0.9-1.7,1.3C532.6,624.4,533.2,623.9,533.7,623.5z"/>
	<path class="st0" d="M585.5,569.6c-0.2,0.3-0.5,0.7-0.7,1C585.1,570.2,585.3,569.9,585.5,569.6z"/>
	<path class="st0" d="M517.3,635.4c-0.5,0.4-1.1,0.7-1.6,1.1C516.2,636.2,516.7,635.8,517.3,635.4z"/>
	<path class="st0" d="M541.4,617.3c-0.5,0.4-1,0.9-1.6,1.3C540.3,618.2,540.8,617.7,541.4,617.3z"/>
	<path class="st0" d="M592.7,558.6c-0.2,0.3-0.3,0.5-0.5,0.8C592.4,559.2,592.6,558.9,592.7,558.6z"/>
	<path class="st0" d="M521.5,632.5c-0.6,0.4-1.1,0.8-1.7,1.2C520.4,633.3,521,632.9,521.5,632.5z"/>
	<path class="st0" d="M525.7,629.6c-0.6,0.4-1.1,0.8-1.7,1.2C524.6,630.4,525.1,630,525.7,629.6z"/>
	<path class="st0" d="M529.7,626.6c-0.6,0.4-1.1,0.8-1.7,1.3C528.6,627.4,529.2,627,529.7,626.6z"/>
	<path class="st0" d="M590.4,562.3c-0.2,0.3-0.4,0.6-0.6,0.9C590.1,562.9,590.2,562.6,590.4,562.3z"/>
	<path class="st0" d="M574.6,583.9c-0.3,0.4-0.6,0.8-1,1.1C574,584.6,574.3,584.2,574.6,583.9z"/>
	<path class="st0" d="M562.3,597.7c-0.4,0.4-0.8,0.8-1.2,1.3C561.5,598.5,561.9,598.1,562.3,597.7z"/>
	<path class="st0" d="M565.5,594.3c-0.4,0.4-0.8,0.8-1.1,1.2C564.8,595.1,565.1,594.7,565.5,594.3z"/>
	<path class="st0" d="M577.5,580.3c-0.3,0.4-0.6,0.7-0.9,1.1C576.9,581.1,577.2,580.7,577.5,580.3z"/>
	<path class="st0" d="M568.6,590.8c-0.4,0.4-0.7,0.8-1.1,1.2C567.9,591.6,568.3,591.2,568.6,590.8z"/>
	<path class="st0" d="M512.7,638.4c-0.5,0.3-0.9,0.6-1.4,0.9C511.8,639,512.3,638.7,512.7,638.4z"/>
	<path class="st0" d="M571.7,587.4c-0.3,0.4-0.7,0.8-1,1.2C571,588.2,571.3,587.8,571.7,587.4z"/>
	<path class="st0" d="M582.9,573.2c-0.3,0.3-0.5,0.7-0.8,1C582.4,573.9,582.7,573.5,582.9,573.2z"/>
	<path class="st0" d="M548.7,610.9c-0.5,0.4-1,0.9-1.5,1.3C547.7,611.8,548.2,611.4,548.7,610.9z"/>
	<path class="st0" d="M545.1,614.1c-0.5,0.4-1,0.9-1.5,1.3C544.1,615,544.6,614.6,545.1,614.1z"/>
	<path class="st0" d="M580.2,576.8c-0.3,0.4-0.5,0.7-0.8,1.1C579.7,577.5,580,577.1,580.2,576.8z"/>
	<path class="st0" d="M552.2,607.7c-0.5,0.4-0.9,0.9-1.4,1.3C551.3,608.5,551.8,608.1,552.2,607.7z"/>
	<path class="st0" d="M555.7,604.4c-0.4,0.4-0.9,0.9-1.3,1.3C554.8,605.2,555.2,604.8,555.7,604.4z"/>
	<path class="st0" d="M559,601c-0.4,0.4-0.8,0.9-1.3,1.3C558.2,601.9,558.6,601.5,559,601z"/>
	<path class="st0" d="M260.9,614.5c-0.1-0.4-0.3-0.7-0.4-1.1C260.6,613.7,260.8,614.1,260.9,614.5z"/>
	<path class="st0" d="M595,554.9c-0.1,0.2-0.3,0.5-0.4,0.7C594.7,555.4,594.8,555.2,595,554.9z"/>
	<path class="st0" d="M599.1,547.5c-0.1,0.2-0.2,0.4-0.3,0.6C598.9,547.9,599,547.7,599.1,547.5z"/>
	<path class="st0" d="M262.1,617.5c-0.2-0.5-0.4-1-0.6-1.5C261.7,616.5,261.9,617,262.1,617.5z"/>
	<path class="st0" d="M259.2,609.6c-0.1-0.3-0.2-0.5-0.3-0.8C259,609.1,259.1,609.3,259.2,609.6z"/>
	<path class="st0" d="M257.5,603.7c-0.1-0.3-0.1-0.5-0.2-0.8C257.4,603.2,257.5,603.4,257.5,603.7z"/>
	<path class="st0" d="M258.3,606.7c-0.1-0.3-0.2-0.6-0.2-0.9C258.2,606.1,258.3,606.4,258.3,606.7z"/>
	<path class="st0" d="M263.4,620.5c-0.2-0.5-0.5-1.1-0.7-1.6C262.9,619.4,263.2,619.9,263.4,620.5z"/>
	<path class="st0" d="M602.9,540.1c-0.1,0.1-0.1,0.2-0.2,0.3C602.8,540.3,602.9,540.2,602.9,540.1z"/>
	<path class="st0" d="M256.8,600.6c0-0.2-0.1-0.4-0.1-0.5C256.7,600.2,256.8,600.4,256.8,600.6z"/>
	<path class="st0" d="M601.1,543.8c-0.1,0.1-0.2,0.3-0.2,0.4C600.9,544.1,601,543.9,601.1,543.8z"/>
	<path class="st0" d="M604.7,536.3c0,0.1-0.1,0.1-0.1,0.2C604.6,536.4,604.6,536.4,604.7,536.3z"/>
	<path class="st0" d="M597.1,551.2c-0.1,0.2-0.2,0.4-0.4,0.6C596.9,551.7,597,551.5,597.1,551.2z"/>
	<path class="st0" d="M266.5,626.5c-0.3-0.6-0.7-1.2-1-1.9C265.8,625.2,266.1,625.9,266.5,626.5z"/>
	<path class="st0" d="M264.9,623.4c-0.3-0.6-0.6-1.1-0.8-1.7C264.3,622.3,264.6,622.9,264.9,623.4z"/>
	<path class="st0" d="M268.7,630.2c-0.6-0.9-1.1-1.9-1.6-2.8C267.5,628.4,268.1,629.3,268.7,630.2z"/>
	<path class="st1" d="M606.3,532.5c-0.5,1.3-1.1,2.5-1.6,3.8c0,0.1-0.1,0.1-0.1,0.2c-0.5,1.2-1.1,2.4-1.7,3.6
		c-0.1,0.1-0.1,0.2-0.2,0.3c-0.5,1.1-1.1,2.3-1.7,3.4c-0.1,0.1-0.2,0.3-0.2,0.4c-0.6,1.1-1.1,2.2-1.7,3.3c-0.1,0.2-0.2,0.4-0.3,0.6
		c-0.6,1.1-1.1,2.1-1.7,3.2c-0.1,0.2-0.2,0.4-0.4,0.6c-0.6,1-1.2,2-1.8,3.1c-0.1,0.2-0.3,0.5-0.4,0.7c-0.6,1-1.2,2-1.8,3
		c-0.2,0.3-0.3,0.5-0.5,0.8c-0.6,1-1.2,1.9-1.8,2.9c-0.2,0.3-0.4,0.6-0.6,0.9c-0.6,0.9-1.2,1.9-1.8,2.8c-0.2,0.3-0.4,0.6-0.6,0.9
		c-0.6,0.9-1.2,1.8-1.9,2.7c-0.2,0.3-0.5,0.7-0.7,1c-0.6,0.9-1.3,1.8-1.9,2.6c-0.3,0.3-0.5,0.7-0.8,1c-0.6,0.9-1.3,1.7-1.9,2.6
		c-0.3,0.4-0.5,0.7-0.8,1.1c-0.6,0.8-1.3,1.7-2,2.5c-0.3,0.4-0.6,0.7-0.9,1.1c-0.7,0.8-1.3,1.6-2,2.4c-0.3,0.4-0.6,0.8-1,1.1
		c-0.7,0.8-1.3,1.6-2,2.4c-0.3,0.4-0.7,0.8-1,1.2c-0.7,0.8-1.3,1.5-2,2.3c-0.4,0.4-0.7,0.8-1.1,1.2c-0.7,0.7-1.4,1.5-2,2.2
		c-0.4,0.4-0.8,0.8-1.1,1.2c-0.7,0.7-1.4,1.4-2.1,2.2c-0.4,0.4-0.8,0.8-1.2,1.3c-0.7,0.7-1.4,1.4-2.1,2.1c-0.4,0.4-0.8,0.9-1.3,1.3
		c-0.7,0.7-1.4,1.4-2.1,2.1c-0.4,0.4-0.9,0.9-1.3,1.3c-0.7,0.7-1.4,1.3-2.1,2c-0.5,0.4-0.9,0.9-1.4,1.3c-0.7,0.7-1.4,1.3-2.1,1.9
		c-0.5,0.4-1,0.9-1.5,1.3c-0.7,0.6-1.4,1.3-2.2,1.9c-0.5,0.4-1,0.9-1.5,1.3c-0.7,0.6-1.5,1.2-2.2,1.9c-0.5,0.4-1,0.9-1.6,1.3
		c-0.7,0.6-1.5,1.2-2.2,1.8c-0.5,0.4-1.1,0.9-1.6,1.3c-0.7,0.6-1.5,1.2-2.3,1.8c-0.6,0.4-1.1,0.9-1.7,1.3c-0.8,0.6-1.5,1.2-2.3,1.7
		c-0.6,0.4-1.1,0.8-1.7,1.3c-0.8,0.6-1.6,1.2-2.4,1.7c-0.6,0.4-1.1,0.8-1.7,1.2c-0.8,0.6-1.6,1.1-2.4,1.7c-0.6,0.4-1.1,0.8-1.7,1.2
		c-0.9,0.6-1.7,1.2-2.6,1.8c-0.5,0.4-1.1,0.7-1.6,1.1c-1,0.6-1.9,1.3-2.9,1.9c-0.5,0.3-0.9,0.6-1.4,0.9c-1.4,0.9-2.9,1.8-4.4,2.7
		c-92.7,56.9-199.4,51.6-238.3-11.8c-0.6-0.9-1.1-1.9-1.6-2.8c-0.2-0.3-0.4-0.6-0.5-1c-0.3-0.6-0.7-1.2-1-1.9
		c-0.2-0.4-0.4-0.8-0.6-1.2c-0.3-0.6-0.6-1.1-0.8-1.7c-0.2-0.4-0.4-0.9-0.6-1.3c-0.2-0.5-0.5-1.1-0.7-1.6s-0.4-0.9-0.6-1.4
		s-0.4-1-0.6-1.5s-0.4-1-0.6-1.5c-0.1-0.4-0.3-0.7-0.4-1.1c-0.5-1.3-0.9-2.5-1.3-3.8c-0.1-0.3-0.2-0.5-0.3-0.8
		c-0.2-0.7-0.4-1.4-0.6-2.1c-0.1-0.3-0.2-0.6-0.2-0.9c-0.2-0.7-0.4-1.4-0.6-2.2c-0.1-0.3-0.1-0.5-0.2-0.8c-0.2-0.8-0.4-1.5-0.5-2.3
		c0-0.2-0.1-0.4-0.1-0.5c-1-4.7-1.7-9.4-2-14.3l0,0L207,593l186.9,186.9L676,522L606.3,532.5z"/>
	<path class="st2" d="M254.4,577.8c0,1.8,0.1,6.2,0.3,8c0.3,4.8,1,9.6,2,14.3c0,0.2,0.1,0.4,0.1,0.5c0.2,0.8,0.3,1.5,0.5,2.3
		c0.1,0.3,0.1,0.5,0.2,0.8c0.2,0.7,0.4,1.4,0.6,2.2c0.1,0.3,0.2,0.6,0.2,0.9c0.2,0.7,0.4,1.4,0.6,2.1c0.1,0.3,0.2,0.5,0.3,0.8
		c0.4,1.3,0.8,2.5,1.3,3.8c0.1,0.4,0.3,0.7,0.4,1.1c0.2,0.5,0.4,1,0.6,1.5s0.4,1,0.6,1.5s0.4,0.9,0.6,1.4s0.5,1.1,0.7,1.6
		c0.2,0.4,0.4,0.9,0.6,1.3c0.3,0.6,0.5,1.1,0.8,1.7c0.2,0.4,0.4,0.8,0.6,1.2c0.3,0.6,0.7,1.2,1,1.9c0.2,0.3,0.3,0.6,0.5,1
		c0.5,0.9,1.1,1.9,1.6,2.8c38.9,63.4,145.6,68.7,238.3,11.8c1.5-0.9,2.9-1.8,4.4-2.7c0.5-0.3,0.9-0.6,1.4-0.9c1-0.6,1.9-1.3,2.9-1.9
		c0.5-0.4,1.1-0.7,1.6-1.1c0.9-0.6,1.7-1.2,2.6-1.8c0.6-0.4,1.1-0.8,1.7-1.2c0.8-0.6,1.6-1.1,2.4-1.7c0.6-0.4,1.1-0.8,1.7-1.2
		c0.8-0.6,1.6-1.1,2.4-1.7c0.6-0.4,1.1-0.8,1.7-1.3c0.8-0.6,1.5-1.2,2.3-1.7c0.6-0.4,1.1-0.9,1.7-1.3c0.8-0.6,1.5-1.2,2.3-1.8
		c0.5-0.4,1.1-0.9,1.6-1.3c0.7-0.6,1.5-1.2,2.2-1.8c0.5-0.4,1-0.9,1.6-1.3c0.7-0.6,1.5-1.2,2.2-1.9c0.5-0.4,1-0.9,1.5-1.3
		c0.7-0.6,1.4-1.3,2.2-1.9c0.5-0.4,1-0.9,1.5-1.3c0.7-0.6,1.4-1.3,2.1-1.9c0.5-0.4,0.9-0.9,1.4-1.3c0.7-0.7,1.4-1.3,2.1-2
		c0.4-0.4,0.9-0.9,1.3-1.3c0.7-0.7,1.4-1.4,2.1-2.1c0.4-0.4,0.8-0.9,1.3-1.3c0.7-0.7,1.4-1.4,2.1-2.1c0.4-0.4,0.8-0.8,1.2-1.3
		c0.7-0.7,1.4-1.4,2.1-2.2c0.4-0.4,0.8-0.8,1.1-1.2c0.7-0.7,1.4-1.5,2-2.2c0.4-0.4,0.7-0.8,1.1-1.2c0.7-0.8,1.3-1.5,2-2.3
		c0.3-0.4,0.7-0.8,1-1.2c0.7-0.8,1.3-1.6,2-2.4c0.3-0.4,0.6-0.8,1-1.1c0.7-0.8,1.3-1.6,2-2.4c0.3-0.4,0.6-0.7,0.9-1.1
		c0.7-0.8,1.3-1.7,2-2.5c0.3-0.4,0.5-0.7,0.8-1.1c0.6-0.9,1.3-1.7,1.9-2.6c0.3-0.3,0.5-0.7,0.8-1c0.6-0.9,1.3-1.8,1.9-2.6
		c0.2-0.3,0.5-0.7,0.7-1c0.6-0.9,1.3-1.8,1.9-2.7c0.2-0.3,0.4-0.6,0.6-0.9c0.6-0.9,1.2-1.9,1.8-2.8c0.2-0.3,0.4-0.6,0.6-0.9
		c0.6-1,1.2-1.9,1.8-2.9c0.2-0.3,0.3-0.5,0.5-0.8c0.6-1,1.2-2,1.8-3c0.1-0.2,0.3-0.5,0.4-0.7c0.6-1,1.2-2,1.8-3.1
		c0.1-0.2,0.2-0.4,0.4-0.6c0.6-1.1,1.2-2.1,1.7-3.2c0.1-0.2,0.2-0.4,0.3-0.6c0.6-1.1,1.2-2.2,1.7-3.3c0.1-0.1,0.2-0.3,0.2-0.4
		c0.6-1.1,1.1-2.3,1.7-3.4c0.1-0.1,0.1-0.2,0.2-0.3c0.6-1.2,1.1-2.4,1.7-3.6c0-0.1,0.1-0.1,0.1-0.2c0.6-1.3,4-9.8,4.6-11.1l-2.9,7.3
		"/>
	<path class="st3" d="M573.7,585c-0.7,0.8-1.3,1.6-2,2.4C572.3,586.6,573,585.8,573.7,585z"/>
	<path class="st3" d="M576.6,581.4c-0.7,0.8-1.3,1.6-2,2.4C575.3,583.1,575.9,582.3,576.6,581.4z"/>
	<path class="st3" d="M579.4,577.8c-0.6,0.8-1.3,1.7-2,2.5C578.1,579.5,578.8,578.7,579.4,577.8z"/>
	<path class="st3" d="M604.6,536.5c-0.5,1.2-1.1,2.4-1.7,3.6C603.5,538.9,604,537.7,604.6,536.5z"/>
	<path class="st3" d="M587.4,566.9c-0.6,0.9-1.2,1.8-1.9,2.7C586.2,568.7,586.8,567.8,587.4,566.9z"/>
	<path class="st3" d="M596.7,551.9c-0.6,1-1.2,2-1.8,3.1C595.6,553.9,596.2,552.9,596.7,551.9z"/>
	<path class="st3" d="M592.3,559.4c-0.6,1-1.2,1.9-1.8,2.9C591,561.3,591.7,560.4,592.3,559.4z"/>
	<path class="st3" d="M594.5,555.7c-0.6,1-1.2,2-1.8,3C593.4,557.6,594,556.7,594.5,555.7z"/>
	<path class="st3" d="M598.8,548.1c-0.6,1.1-1.1,2.1-1.7,3.2C597.7,550.2,598.3,549.1,598.8,548.1z"/>
	<path class="st3" d="M602.8,540.4c-0.5,1.1-1.1,2.3-1.7,3.4C601.7,542.7,602.2,541.5,602.8,540.4z"/>
	<path class="st3" d="M582.2,574.2c-0.6,0.9-1.3,1.7-1.9,2.6C580.9,575.9,581.5,575.1,582.2,574.2z"/>
	<path class="st3" d="M589.9,563.2c-0.6,0.9-1.2,1.9-1.8,2.8C588.6,565,589.3,564.1,589.9,563.2z"/>
	<path class="st3" d="M584.8,570.6c-0.6,0.9-1.3,1.8-1.9,2.6C583.6,572.3,584.2,571.4,584.8,570.6z"/>
	<path class="st3" d="M600.9,544.2c-0.6,1.1-1.1,2.2-1.7,3.3C599.7,546.4,600.3,545.3,600.9,544.2z"/>
	<path class="st3" d="M260.5,613.4c-0.5-1.3-0.9-2.5-1.3-3.8C259.6,610.9,260,612.1,260.5,613.4z"/>
	<path class="st3" d="M265.5,624.6c-0.2-0.4-0.4-0.8-0.6-1.2C265.1,623.8,265.3,624.2,265.5,624.6z"/>
	<path class="st3" d="M264,621.8c-0.2-0.4-0.4-0.9-0.6-1.3C263.6,620.9,263.8,621.3,264,621.8z"/>
	<path class="st3" d="M267,627.4c-0.2-0.3-0.4-0.6-0.5-1C266.7,626.8,266.8,627.1,267,627.4z"/>
	<path class="st3" d="M519.9,633.7c-0.9,0.6-1.7,1.2-2.6,1.8C518.1,634.9,519,634.3,519.9,633.7z"/>
	<path class="st3" d="M515.6,636.5c-1,0.6-1.9,1.3-2.9,1.9C513.7,637.8,514.7,637.2,515.6,636.5z"/>
	<path class="st3" d="M511.3,639.3c-1.4,0.9-2.9,1.8-4.4,2.7C508.4,641.2,509.9,640.3,511.3,639.3z"/>
	<path class="st3" d="M262.7,618.9c-0.2-0.5-0.4-0.9-0.6-1.4C262.3,617.9,262.5,618.4,262.7,618.9z"/>
	<path class="st3" d="M604.7,536.3c0.6-1.3,1.1-2.5,1.6-3.8l0,0C605.8,533.8,605.2,535.1,604.7,536.3z"/>
	<path class="st3" d="M261.5,616c-0.2-0.5-0.4-1-0.6-1.5C261.1,615,261.3,615.5,261.5,616z"/>
	<path class="st3" d="M257.3,602.9c-0.2-0.8-0.4-1.5-0.5-2.3C257,601.4,257.1,602.1,257.3,602.9z"/>
	<path class="st3" d="M254.7,585.8c0.3,4.8,1,9.6,2,14.3C255.7,595.4,255,590.6,254.7,585.8"/>
	<path class="st3" d="M259,608.8c-0.2-0.7-0.4-1.4-0.6-2.1C258.5,607.4,258.7,608.1,259,608.8z"/>
	<path class="st3" d="M258.1,605.8c-0.2-0.7-0.4-1.4-0.6-2.2C257.7,604.4,257.9,605.1,258.1,605.8z"/>
	<path class="st3" d="M550.8,609c-0.7,0.7-1.4,1.3-2.1,1.9C549.4,610.3,550.1,609.6,550.8,609z"/>
	<path class="st3" d="M561.1,598.9c-0.7,0.7-1.4,1.4-2.1,2.1C559.7,600.3,560.4,599.6,561.1,598.9z"/>
	<path class="st3" d="M557.8,602.3c-0.7,0.7-1.4,1.4-2.1,2.1C556.4,603.7,557.1,603,557.8,602.3z"/>
	<path class="st3" d="M570.7,588.5c-0.7,0.8-1.3,1.5-2,2.3C569.3,590.1,570,589.3,570.7,588.5z"/>
	<path class="st3" d="M554.3,605.7c-0.7,0.7-1.4,1.3-2.1,2C552.9,607,553.6,606.3,554.3,605.7z"/>
	<path class="st3" d="M567.6,592c-0.7,0.7-1.4,1.5-2,2.2C566.2,593.5,566.9,592.8,567.6,592z"/>
	<path class="st3" d="M564.4,595.5c-0.7,0.7-1.4,1.4-2.1,2.2C563,597,563.7,596.2,564.4,595.5z"/>
	<path class="st3" d="M547.2,612.2c-0.7,0.6-1.4,1.3-2.2,1.9C545.8,613.5,546.5,612.9,547.2,612.2z"/>
	<path class="st3" d="M536,621.7c-0.7,0.6-1.5,1.2-2.3,1.8C534.5,622.9,535.2,622.3,536,621.7z"/>
	<path class="st3" d="M532,624.8c-0.8,0.6-1.5,1.2-2.3,1.7C530.5,626,531.3,625.4,532,624.8z"/>
	<path class="st3" d="M528.1,627.8c-0.8,0.6-1.6,1.2-2.4,1.7C526.5,629,527.3,628.4,528.1,627.8z"/>
	<path class="st3" d="M543.6,615.4c-0.7,0.6-1.5,1.2-2.2,1.9C542.1,616.7,542.8,616.1,543.6,615.4z"/>
	<path class="st3" d="M539.8,618.6c-0.7,0.6-1.5,1.2-2.2,1.8C538.3,619.8,539.1,619.2,539.8,618.6z"/>
	<path class="st3" d="M524,630.8c-0.8,0.6-1.6,1.1-2.4,1.7C522.4,631.9,523.2,631.4,524,630.8z"/>
</g>
</svg>
