<?xml version="1.0" encoding="utf-8"?>
<!-- Generator: Adobe Illustrator 19.2.1, SVG Export Plug-In . SVG Version: 6.00 Build 0)  -->
<svg version="1.1" id="レイヤー_1" xmlns="http://www.w3.org/2000/svg" xmlns:xlink="http://www.w3.org/1999/xlink" x="0px"
	 y="0px" viewBox="0 0 500 500" style="enable-background:new 0 0 500 500;" xml:space="preserve">
<style type="text/css">
	.st0{clip-path:url(#SVGID_2_);fill:url(#SVGID_3_);}
	.st1{clip-path:url(#SVGID_2_);}
	.st2{fill:#FFFFFF;}
</style>
<g>
	<defs>
		<path id="SVGID_1_" d="M405,500H95c-52.2,0-95-42.8-95-95V95C0,42.8,42.8,0,95,0h310c52.2,0,95,42.8,95,95v310
			C500,457.2,457.2,500,405,500z"/>
	</defs>
	<clipPath id="SVGID_2_">
		<use xlink:href="#SVGID_1_"  style="overflow:visible;"/>
	</clipPath>
	
		<linearGradient id="SVGID_3_" gradientUnits="userSpaceOnUse" x1="173.8741" y1="-37.0652" x2="328.7199" y2="540.8275" gradientTransform="matrix(1 0 0 -1 0 500)">
		<stop  offset="0" style="stop-color:#FCCB61"/>
		<stop  offset="6.080769e-02" style="stop-color:#FAB857"/>
		<stop  offset="0.1838" style="stop-color:#F5863E"/>
		<stop  offset="0.2406" style="stop-color:#F26D31"/>
		<stop  offset="0.2564" style="stop-color:#F06737"/>
		<stop  offset="0.3434" style="stop-color:#E44D54"/>
		<stop  offset="0.4299" style="stop-color:#DC3968"/>
		<stop  offset="0.5152" style="stop-color:#D72E75"/>
		<stop  offset="0.5979" style="stop-color:#D52A79"/>
		<stop  offset="0.7787" style="stop-color:#9F4A91"/>
		<stop  offset="0.8717" style="stop-color:#89589B"/>
		<stop  offset="0.9254" style="stop-color:#7B5BA2"/>
		<stop  offset="1" style="stop-color:#6C5FA9"/>
	</linearGradient>
	<path class="st0" d="M175.5,500.3h149.9C529,500.3,500,541,500,323.1V173.6C500-40,541,0.3,326.7,0.3H174.2C-30,0.3,0-24,0,174.4
		v147.7C0,530-27,500.3,175.5,500.3z"/>
	<g class="st1">
		<path class="st2" d="M326.9,70.2H173.1c-57,0-103.2,46.2-103.2,103.2v153.8c0,57,46.2,103.2,103.2,103.2h153.8
			c57,0,103.2-46.2,103.2-103.2V173.4C430.1,116.4,383.9,70.2,326.9,70.2z M399.8,314.3c0,47.4-38.4,85.9-85.9,85.9H186
			c-47.4,0-85.9-38.4-85.9-85.9v-128c0-47.4,38.4-85.9,85.9-85.9h128c47.4,0,85.9,38.4,85.9,85.9v128H399.8z"/>
		<path class="st2" d="M250.9,159.3c-50.8,0-91.9,41.1-91.9,91.9s41.1,91.9,91.9,91.9s91.9-41.1,91.9-91.9S301.7,159.3,250.9,159.3z
			 M250.9,309.8c-32.4,0-58.6-26.2-58.6-58.6s26.2-58.6,58.6-58.6s58.6,26.2,58.6,58.6S283.3,309.8,250.9,309.8z"/>
		<circle class="st2" cx="345.7" cy="155.5" r="23.4"/>
	</g>
</g>
</svg>
