<?xml version="1.0" encoding="utf-8"?>
<!-- Generator: Adobe Illustrator 19.1.0, SVG Export Plug-In . SVG Version: 6.00 Build 0)  -->
<svg version="1.1" id="Layer_1" xmlns="http://www.w3.org/2000/svg" xmlns:xlink="http://www.w3.org/1999/xlink" x="0px" y="0px"
	 viewBox="-697 31 500 500" style="enable-background:new -697 31 500 500;" xml:space="preserve">
<style type="text/css">
	.st0{clip-path:url(#SVGID_2_);}
	.st1{clip-path:url(#SVGID_4_);}
	.st2{fill:#55ACEE;}
	.st3{fill:#FFFFFF;}
</style>
<g>
	<defs>
		<path id="SVGID_1_" d="M-292,531h-310c-52.2,0-95-42.8-95-95V126c0-52.2,42.8-95,95-95h310c52.2,0,95,42.8,95,95v310
			C-197,488.2-239.8,531-292,531z"/>
	</defs>
	<clipPath id="SVGID_2_">
		<use xlink:href="#SVGID_1_"  style="overflow:visible;"/>
	</clipPath>
	<g class="st0">
		<g>
			<defs>
				<path id="SVGID_3_" d="M-193.8,445.5c0,49.5-41.5,91-91,91h-324.2c-51.1,0-91-39.9-91-91v-329c0-49.5,41.5-91,91-91h324.2
					c51.1,0,91,39.9,91,91V445.5L-193.8,445.5z"/>
			</defs>
			<clipPath id="SVGID_4_">
				<use xlink:href="#SVGID_3_"  style="overflow:visible;"/>
			</clipPath>
			<g class="st1">
				<path class="st2" d="M-192.2,504.6c0,17.6-14.4,31.9-31.9,31.9h-447.2c-17.6,0-31.9-14.4-31.9-31.9V57.4
					c0-17.6,14.4-31.9,31.9-31.9h447.2c17.6,0,31.9,14.4,31.9,31.9V504.6z"/>
				<path class="st3" d="M-288.1,183.6c-11.2,4.8-24,8-38.3,9.6c14.4-8,24-20.8,28.7-35.1c-12.8,8-27.2,12.8-41.5,16
					c-11.2-12.8-28.7-20.8-47.9-20.8c-36.7,0-65.5,28.7-65.5,63.9c0,4.8,0,9.6,1.6,14.4c-54.3-3.2-102.2-28.7-135.8-67.1
					c-6.4,9.6-9.6,20.8-9.6,31.9c0,22.4,11.2,41.5,28.7,54.3c-11.2,0-20.8-3.2-30.3-8c0,0,0,0,0,1.6c0,31.9,22.4,57.5,52.7,63.9
					c-4.8,1.6-11.2,1.6-17.6,1.6c-4.8,0-8,0-12.8-1.6c8,25.6,31.9,44.7,60.7,44.7c-22.4,17.6-51.1,27.2-81.5,27.2
					c-4.8,0-11.2,0-16-1.6c28.7,17.6,63.9,28.7,100.6,28.7c119.8,0,186.9-99,186.9-183.7c0-3.2,0-6.4,0-8
					C-308.8,207.5-297.7,196.3-288.1,183.6z"/>
			</g>
		</g>
	</g>
</g>
</svg>
