<?xml version="1.0" encoding="utf-8"?>
<!-- Generator: Adobe Illustrator 19.1.0, SVG Export Plug-In . SVG Version: 6.00 Build 0)  -->
<svg version="1.1" id="Layer_1" xmlns="http://www.w3.org/2000/svg" xmlns:xlink="http://www.w3.org/1999/xlink" x="0px" y="0px"
	 viewBox="-471.1 31.1 500 500" style="enable-background:new -471.1 31.1 500 500;" xml:space="preserve">
<style type="text/css">
	.st0{clip-path:url(#SVGID_2_);}
	.st1{clip-path:url(#SVGID_4_);}
	.st2{fill:#3C5A99;}
	.st3{fill:#FFFFFF;}
</style>
<g>
	<defs>
		<path id="SVGID_1_" d="M-66.1,531.2h-310c-52.2,0-95-42.8-95-95v-310c0-52.2,42.8-95,95-95h310c52.2,0,95,42.8,95,95v310
			C28.9,488.4-13.9,531.2-66.1,531.2z"/>
	</defs>
	<clipPath id="SVGID_2_">
		<use xlink:href="#SVGID_1_"  style="overflow:visible;"/>
	</clipPath>
	<g class="st0">
		<g>
			<g>
				<defs>
					<path id="SVGID_3_" d="M31.1,444.8c0,49.9-40.8,90.3-91.1,90.3h-322.3c-50.3,0-91.1-40.4-91.1-90.3V117.5
						c0-49.9,40.8-90.3,91.1-90.3H-60c50.3,0,91.1,40.4,91.1,90.3V444.8L31.1,444.8z"/>
				</defs>
				<clipPath id="SVGID_4_">
					<use xlink:href="#SVGID_3_"  style="overflow:visible;"/>
				</clipPath>
				<g class="st1">
					<path id="Blue_1_" class="st2" d="M4.1,535.1c15.6,0,28-12.6,28-28V54.8c0-15.6-12.6-28-28-28H-448c-15.6,0-28,12.6-28,28
						v452.1c0,15.6,12.6,28,28,28H4.1V535.1z"/>
					<path id="f" class="st3" d="M-125.4,535.1V338.3h66l9.9-76.7h-75.9v-48.9c0-22.3,6.1-37.3,38-37.3h40.6v-68.6
						c-7.1-1-31.1-3-59.1-3c-58.6,0-98.6,35.7-98.6,101.3v56.6h-66.2v76.7h66.2v196.6H-125.4L-125.4,535.1L-125.4,535.1z"/>
				</g>
			</g>
		</g>
	</g>
</g>
</svg>
