<?xml version="1.0" encoding="utf-8"?>
<!-- Generator: Adobe Illustrator 21.0.0, SVG Export Plug-In . SVG Version: 6.00 Build 0)  -->
<svg version="1.1" id="レイヤー_5" xmlns="http://www.w3.org/2000/svg" xmlns:xlink="http://www.w3.org/1999/xlink" x="0px"
	 y="0px" viewBox="0 0 503 506.3" style="enable-background:new 0 0 503 506.3;" xml:space="preserve">
<style type="text/css">
	.st0{fill:#55ACEE;}
	.st1{fill:#FFFFFF;}
</style>
<g>
	<g>
		<path class="st0" d="M239.8,40.4c0-16.1,6.5-29.2,14.4-29.2c8,0,14.4,13.1,14.4,29.2s-9.9,63-14.4,63
			C250.2,103.4,239.8,56.6,239.8,40.4z"/>
		<path class="st1" d="M244.8,26.5c-3,9.8-2.9,21.7-1.2,22.3c1.7,0.6,0.9-11.1,4.3-20.7s7.3-13.2,5.7-14.1
			C252.6,13.4,247.2,18.8,244.8,26.5z"/>
	</g>
	<g>
		<path class="st0" d="M167.8,57.3c-5.5-15.2-3.9-29.7,3.6-32.4c7.5-2.7,18,7.4,23.5,22.5c5.5,15.2,12.3,62.6,8,64.1
			C199.1,112.9,173.3,72.4,167.8,57.3z"/>
		<path class="st1" d="M167.7,42.4c0.5,10.2,4.7,21.4,6.5,21.4s-3-10.7-3-20.9c0-10.2,2.3-14.9,0.5-15.2
			C170.5,27.5,167.3,34.4,167.7,42.4z"/>
	</g>
	<g>
		<path class="st0" d="M105.8,97.7C95.4,85.4,92,71.2,98.1,66.1s19.5,0.8,29.8,13.1s32.9,54.6,29.4,57.5
			C154.3,139.3,116.2,110.1,105.8,97.7z"/>
		<path class="st1" d="M100.7,83.8c4,9.4,11.7,18.5,13.4,17.9c1.7-0.6-6.5-9.1-10-18.6s-2.9-14.8-4.7-14.4
			C98.2,68.8,97.6,76.4,100.7,83.8z"/>
	</g>
	<g>
		<path class="st0" d="M61.4,156.9c-14-8.1-22.1-20.2-18.1-27.1c4-6.9,18.5-5.9,32.5,2.1s49.6,40,47.3,44
			C121.2,179.4,75.4,165,61.4,156.9z"/>
		<path class="st1" d="M51.8,145.6c7,7.5,17.3,13.4,18.7,12.2c1.4-1.2-9.2-6.3-15.8-14.1s-7.8-12.9-9.4-11.9
			C44.4,132.4,46.4,139.7,51.8,145.6z"/>
	</g>
	<g>
		<path class="st0" d="M40,227.7c-15.9-2.8-27.7-11.4-26.3-19.3s15.4-11.9,31.3-9.1s60.3,20.7,59.5,25.1
			C103.8,228.4,55.9,230.5,40,227.7z"/>
		<path class="st1" d="M27.1,220.4c9.1,4.6,20.9,6.7,21.8,5.1c0.9-1.6-10.8-2.8-19.7-7.8c-8.9-5.1-11.8-9.5-12.9-8
			C15.6,210.5,20,216.7,27.1,220.4z"/>
	</g>
	<g>
		<path class="st0" d="M44.1,301.6c-15.9,2.8-29.9-1.3-31.3-9.1S23.2,276,39,273.2c15.9-2.8,63.7-1.2,64.5,3.3
			C104.3,280.4,59.9,298.8,44.1,301.6z"/>
		<path class="st1" d="M29.4,299.1c10.1,1.3,21.9-0.9,22.2-2.7c0.3-1.8-11.1,1.1-21.2-0.6c-10.1-1.7-14.3-4.9-14.9-3.1
			C15.2,293.7,21.5,298.1,29.4,299.1z"/>
	</g>
	<g>
		<path class="st0" d="M73.1,369.6c-14,8.1-28.5,9-32.5,2.1c-4-6.9,4.1-19,18.1-27.1s59.5-22.9,61.8-19
			C122.5,329.1,87.1,361.6,73.1,369.6z"/>
		<path class="st1" d="M58.5,372.3c10-2.3,20.3-8.3,19.9-10.1c-0.3-1.8-10,4.8-20.1,6.6s-15.1,0.3-15,2.2
			C43.4,372.1,50.7,374.1,58.5,372.3z"/>
	</g>
	<g>
		<path class="st0" d="M123.7,423.6c-10.4,12.4-23.7,18.2-29.8,13.1c-6.1-5.1-2.6-19.3,7.7-31.6s48-41.9,51.5-39
			C156.3,368.7,134.1,411.2,123.7,423.6z"/>
		<path class="st1" d="M110.9,431.1c8.6-5.6,16.2-14.7,15.3-16.3c-0.9-1.6-7.8,8-16.6,13.1c-8.8,5.1-14.1,5.5-13.4,7.2
			C96.6,436.1,104.2,435.4,110.9,431.1z"/>
	</g>
	<g>
		<path class="st0" d="M189.7,457c-5.5,15.2-16.1,25.2-23.5,22.5c-7.5-2.7-9.1-17.2-3.6-32.4c5.5-15.2,30.8-55.8,35.1-54.3
			C201.5,394.3,195.3,441.9,189.7,457z"/>
		<path class="st1" d="M180.2,468.5c6.2-8.2,10.2-19.4,8.8-20.6c-1.4-1.2-4.6,10.1-11.1,18c-6.5,7.9-11.4,10-10.1,11.3
			C168.5,478,175.4,474.8,180.2,468.5z"/>
	</g>
	<g>
		<path class="st0" d="M263.2,465.9c0,16.1-6.5,29.2-14.4,29.2c-8,0-14.4-13.1-14.4-29.2c0-16.1,9.9-63,14.4-63
			C252.8,402.9,263.2,449.7,263.2,465.9z"/>
		<path class="st1" d="M258.2,479.8c3-9.8,2.9-21.7,1.2-22.3c-1.7-0.6-0.9,11.1-4.3,20.7c-3.5,9.6-7.3,13.2-5.7,14.1
			C250.4,492.9,255.8,487.5,258.2,479.8z"/>
	</g>
	<g>
		<path class="st0" d="M335.2,449c5.5,15.2,3.9,29.7-3.6,32.4c-7.5,2.7-18-7.4-23.5-22.5s-12.3-62.6-8-64.1
			C303.9,393.4,329.7,433.9,335.2,449z"/>
		<path class="st1" d="M335.3,463.9c-0.5-10.2-4.7-21.4-6.5-21.4s3,10.7,3,20.9c0,10.2-2.3,14.9-0.5,15.2
			C332.5,478.8,335.7,471.9,335.3,463.9z"/>
	</g>
	<g>
		<path class="st0" d="M397.2,408.6c10.4,12.4,13.8,26.5,7.7,31.6c-6.1,5.1-19.5-0.8-29.8-13.1c-10.4-12.4-32.9-54.6-29.4-57.5
			C348.7,367,386.8,396.2,397.2,408.6z"/>
		<path class="st1" d="M402.3,422.5c-4-9.4-11.7-18.5-13.4-17.9s6.5,9.1,10,18.6c3.5,9.6,2.9,14.8,4.7,14.4
			C404.8,437.5,405.4,429.9,402.3,422.5z"/>
	</g>
	<g>
		<path class="st0" d="M441.6,349.4c14,8.1,22.1,20.2,18.1,27.1c-4,6.9-18.5,5.9-32.5-2.1c-14-8.1-49.6-40-47.3-44
			C381.8,326.9,427.6,341.3,441.6,349.4z"/>
		<path class="st1" d="M451.2,360.7c-7-7.5-17.3-13.4-18.7-12.2c-1.4,1.2,9.2,6.3,15.8,14.1c6.6,7.8,7.8,12.9,9.4,11.9
			C458.6,373.9,456.6,366.6,451.2,360.7z"/>
	</g>
	<g>
		<path class="st0" d="M463,278.6c15.9,2.8,27.7,11.4,26.3,19.3c-1.4,7.8-15.4,11.9-31.3,9.1c-15.9-2.8-60.3-20.7-59.5-25.1
			C399.2,277.9,447.1,275.8,463,278.6z"/>
		<path class="st1" d="M475.9,285.9c-9.1-4.6-20.9-6.7-21.8-5.1c-0.9,1.6,10.8,2.8,19.7,7.8c8.9,5.1,11.8,9.5,12.9,8
			C487.4,295.8,483,289.6,475.9,285.9z"/>
	</g>
	<g>
		<path class="st0" d="M458.9,204.7c15.9-2.8,29.9,1.3,31.3,9.1s-10.4,16.5-26.3,19.3c-15.9,2.8-63.7,1.2-64.5-3.3
			C398.7,225.9,443.1,207.5,458.9,204.7z"/>
		<path class="st1" d="M473.6,207.2c-10.1-1.3-21.9,0.9-22.2,2.7c-0.3,1.8,11.1-1.1,21.2,0.6c10.1,1.7,14.3,4.9,14.9,3.1
			C487.8,212.6,481.5,208.2,473.6,207.2z"/>
	</g>
	<g>
		<path class="st0" d="M429.9,136.7c14-8.1,28.5-9,32.5-2.1c4,6.9-4.1,19-18.1,27.1c-14,8.1-59.5,22.9-61.8,19
			C380.5,177.2,415.9,144.7,429.9,136.7z"/>
		<path class="st1" d="M444.5,134c-10,2.3-20.3,8.3-19.9,10.1c0.3,1.8,10-4.8,20.1-6.6c10.1-1.8,15.1-0.3,15-2.2
			C459.6,134.2,452.3,132.2,444.5,134z"/>
	</g>
	<g>
		<path class="st0" d="M379.3,82.7c10.4-12.4,23.7-18.2,29.8-13.1s2.6,19.3-7.7,31.6s-48,41.9-51.5,39
			C346.7,137.6,368.9,95.1,379.3,82.7z"/>
		<path class="st1" d="M392.1,75.2c-8.6,5.6-16.2,14.7-15.3,16.3c0.9,1.6,7.8-8,16.6-13.1c8.8-5.1,14.1-5.5,13.4-7.2
			C406.4,70.2,398.8,70.9,392.1,75.2z"/>
	</g>
	<g>
		<path class="st0" d="M313.3,49.3c5.5-15.2,16.1-25.2,23.5-22.5s9.1,17.2,3.6,32.4s-30.8,55.8-35.1,54.3
			C301.5,112,307.7,64.4,313.3,49.3z"/>
		<path class="st1" d="M322.8,37.8c-6.2,8.2-10.2,19.4-8.8,20.6s4.6-10.1,11.1-18c6.5-7.9,11.4-10,10.1-11.3
			C334.5,28.3,327.6,31.5,322.8,37.8z"/>
	</g>
</g>
</svg>
