<?xml version="1.0" standalone="no"?>
<!DOCTYPE svg PUBLIC "-//W3C//DTD SVG 20010904//EN"
 "http://www.w3.org/TR/2001/REC-SVG-20010904/DTD/svg10.dtd">
<svg version="1.0" xmlns="http://www.w3.org/2000/svg"
 width="300.000000pt" height="300.000000pt" viewBox="0 0 300.000000 300.000000"
 preserveAspectRatio="xMidYMid meet">
<metadata>
Created by potrace 1.11, written by Peter Selinger 2001-2013
</metadata>
<g transform="translate(0.000000,300.000000) scale(0.100000,-0.100000)"
fill="#000000" stroke="none">
<path d="M1767 2698 c1 -139 3 -376 5 -527 l3 -274 -55 -19 c-30 -10 -62 -21
-70 -25 -8 -3 -24 -8 -35 -10 -11 -2 -21 -8 -23 -13 -2 -6 -9 -10 -16 -10 -17
0 -169 -79 -177 -92 -3 -5 -9 -8 -11 -6 -6 4 -174 -114 -233 -163 -56 -47
-213 -205 -256 -258 -30 -37 -37 -41 -50 -29 -37 36 -142 107 -150 102 -20
-12 -13 -22 84 -131 l39 -42 -24 -38 c-12 -20 -26 -41 -29 -46 -4 -5 -21 3
-38 19 -55 48 -145 114 -158 114 -34 0 -8 -36 125 -182 l26 -28 -23 -45 c-12
-25 -25 -45 -29 -45 -4 0 -28 20 -53 43 -25 23 -56 49 -69 57 -12 8 -34 25
-48 38 -56 47 -89 40 -52 -11 23 -31 41 -51 142 -161 27 -28 48 -55 48 -61 0
-5 -7 -35 -15 -65 -46 -168 -35 -314 31 -444 122 -238 317 -332 625 -301 380
37 839 347 1091 735 72 111 152 296 173 400 15 69 25 209 17 223 -2 5 -5 27
-7 50 -3 47 -51 179 -75 205 -8 10 -26 37 -39 61 -51 94 -170 176 -281 195
-14 3 -25 5 -25 6 0 1 -36 4 -80 5 -44 2 -85 4 -91 4 -9 1 -9 65 0 201 2 25 4
69 5 98 l1 53 33 -24 c109 -82 281 -103 374 -46 71 44 123 126 149 235 17 74
14 88 -11 51 -45 -70 -130 -83 -172 -28 -24 32 -73 129 -73 146 0 30 -61 146
-98 187 -81 90 -204 144 -336 147 l-71 2 2 -253z"/>
</g>
</svg>
