<svg id="body_1_" xmlns="http://www.w3.org/2000/svg" viewBox="0 0 760 1000"><style>.st0{fill:#ffc280}.st1{fill:#ff9e80}.st2{fill:#7f5940}.st3{fill:#ffad80}</style><ellipse transform="rotate(-41.772 409.704 670.784)" class="st0" cx="409.7" cy="670.8" rx="373.9" ry="237.8" id="ソール"/><ellipse transform="rotate(-41.22 396.644 651)" class="st1" cx="396.7" cy="651" rx="373.6" ry="216.6" id="body"/><g id="くつひも"><path class="st2" d="M32.6 620.2s4.4 2.8 11.6 8c3.7 2.6 8 5.8 13 9.5 2.5 1.9 5.1 3.9 7.9 6 2.7 2.1 5.6 4.4 8.6 6.8 3 2.4 6.1 4.9 9.2 7.5 3.2 2.6 6.4 5.3 9.8 8.1 3.3 2.8 6.7 5.7 10.2 8.7 3.4 3 7 6.1 10.5 9.2 14.2 12.6 29.1 26.3 43.6 40.4 7.3 7 14.5 14.2 21.5 21.2 7 7.1 13.9 14.1 20.4 21 3.3 3.4 6.5 6.8 9.6 10.2s6.2 6.6 9.1 9.9c5.9 6.5 11.3 12.7 16.3 18.4 5 5.8 9.5 11.1 13.4 15.9 3.9 4.8 7.3 9 10.1 12.6 2.8 3.5 4.9 6.3 6.3 8.3 1.4 1.9 2.2 3 2.2 3 .4.6.3 1.4-.3 1.8-.5.3-1 .3-1.5 0 0 0-1.1-.7-3.1-2-2-1.4-4.9-3.3-8.5-6-3.6-2.6-8-5.8-13-9.5s-10.5-8-16.5-12.8c-6-4.7-12.4-9.9-19.1-15.5-3.4-2.8-6.8-5.7-10.3-8.6-3.5-2.9-7-6-10.6-9.1-7.2-6.2-14.5-12.8-21.9-19.5s-14.8-13.6-22.1-20.6c-14.7-13.9-29-28.2-42.2-41.9-3.3-3.4-6.5-6.8-9.6-10.2s-6.1-6.6-9.1-9.8c-2.9-3.2-5.8-6.4-8.5-9.4-2.7-3.1-5.3-6.1-7.8-8.9-2.5-2.9-4.9-5.7-7.1-8.3-2.2-2.7-4.3-5.2-6.3-7.6-3.9-4.8-7.3-9-10.1-12.6-5.5-7.1-8.4-11.3-8.4-11.3-.6-.9-.4-2.1.5-2.7.7-.6 1.6-.6 2.2-.2zM74.7 578.1s4.4 2.8 11.6 8c3.7 2.6 8 5.8 13 9.5 2.5 1.9 5.1 3.9 7.9 6 2.7 2.1 5.6 4.4 8.6 6.8 3 2.4 6.1 4.9 9.2 7.5 3.2 2.6 6.4 5.3 9.8 8.1 3.3 2.8 6.7 5.7 10.2 8.7 3.4 3 7 6.1 10.5 9.2 14.2 12.6 29.1 26.3 43.6 40.4 7.3 7 14.5 14.2 21.5 21.2 7 7.1 13.9 14.1 20.4 21 3.3 3.4 6.5 6.8 9.6 10.2s6.2 6.6 9.1 9.9c5.9 6.5 11.3 12.7 16.3 18.4 5 5.8 9.5 11.1 13.4 15.9 3.9 4.8 7.3 9 10.1 12.6 2.8 3.5 4.9 6.3 6.3 8.3 1.4 1.9 2.2 3 2.2 3 .4.6.3 1.4-.3 1.8-.5.3-1 .3-1.5 0 0 0-1.1-.7-3.1-2-2-1.4-4.9-3.3-8.5-6-3.6-2.6-8-5.8-13-9.5s-10.5-8-16.5-12.8c-6-4.7-12.4-9.9-19.1-15.5-3.4-2.8-6.8-5.7-10.3-8.6-3.5-2.9-7-6-10.6-9.1-7.2-6.2-14.5-12.8-21.9-19.5S188.4 708 181.1 701c-14.7-13.9-29-28.2-42.2-41.9-3.3-3.4-6.5-6.8-9.6-10.2s-6.1-6.6-9.1-9.8c-2.9-3.2-5.8-6.4-8.5-9.4-2.7-3.1-5.3-6.1-7.8-8.9-2.5-2.9-4.9-5.7-7.1-8.3-2.2-2.7-4.3-5.2-6.3-7.6-3.9-4.8-7.3-9-10.1-12.6C74.9 585.2 72 581 72 581c-.6-.9-.4-2.1.5-2.7.7-.6 1.5-.6 2.2-.2zM116.7 536.1s4.4 2.8 11.6 8c3.7 2.6 8 5.8 13 9.5 2.5 1.9 5.1 3.9 7.9 6 2.7 2.1 5.6 4.4 8.6 6.8 3 2.4 6.1 4.9 9.2 7.5 3.2 2.6 6.4 5.3 9.8 8.1 3.3 2.8 6.7 5.7 10.2 8.7 3.4 3 7 6.1 10.5 9.2 14.2 12.6 29.1 26.3 43.6 40.4 7.3 7 14.5 14.2 21.5 21.2 7 7.1 13.9 14.1 20.4 21 3.3 3.4 6.5 6.8 9.6 10.2s6.2 6.6 9.1 9.9c5.9 6.5 11.3 12.7 16.3 18.4 5 5.8 9.5 11.1 13.4 15.9 3.9 4.8 7.3 9 10.1 12.6 2.8 3.5 4.9 6.3 6.3 8.3 1.4 1.9 2.2 3 2.2 3 .4.6.3 1.4-.3 1.8-.5.3-1 .3-1.5 0 0 0-1.1-.7-3.1-2-2-1.4-4.9-3.3-8.5-6-3.6-2.6-8-5.8-13-9.5s-10.5-8-16.5-12.8c-6-4.7-12.4-9.9-19.1-15.5-3.4-2.8-6.8-5.7-10.3-8.6-3.5-2.9-7-6-10.6-9.1-7.2-6.2-14.5-12.8-21.9-19.5S230.4 666 223.1 659c-14.7-13.9-29-28.2-42.2-41.9-3.3-3.4-6.5-6.8-9.6-10.2s-6.1-6.6-9.1-9.8c-2.9-3.2-5.8-6.4-8.5-9.4-2.7-3.1-5.3-6.1-7.8-8.9-2.5-2.9-4.9-5.7-7.1-8.3-2.2-2.7-4.3-5.2-6.3-7.6-3.9-4.8-7.3-9-10.1-12.6-5.5-7.1-8.4-11.3-8.4-11.3-.6-.9-.4-2.1.5-2.7.7-.6 1.6-.6 2.2-.2z"/></g><ellipse transform="rotate(-31.548 437.365 527.147)" class="st3" cx="437.4" cy="527.1" rx="196.9" ry="134.8" id="穴"/><g id="note"><path class="st2" d="M594.3 464.3c-33.7-58.4-131.1-65.2-217.6-15.3s-129.1 137.7-95.4 196c.3.5.6.9.8 1.4 46.1 47.7 141.7 47.3 225.8-4.3 39.6-24.3 70.2-56 89.3-89.4 12-31.4 12-62.7-2.9-88.4z"/><path class="st2" d="M470.4 444L465 26.6S596-8.3 639.7 152.8c6.7 24.6 41 71.3 79.9 9.7 0 0-16.8 188.6-185.5 78.3l-8.7 234.7-55-31.5z"/></g></svg>