<svg id="body_1_" xmlns="http://www.w3.org/2000/svg" viewBox="0 0 760 1000"><style>.st0{fill:none}.st1{fill:#FFF;stroke:#FFF;stroke-width:8;stroke-miterlimit:10}.st2{fill:none}.st2,.st3{stroke:#040000;stroke-width:8;stroke-miterlimit:10}.st3{fill:#FFF}</style><g id="mask"><path class="st0" d="M588 566l-.6.9.6-.9zM537.6 620.4c-.5.4-1.1.9-1.6 1.3.5-.4 1-.8 1.6-1.3zM533.7 623.5c-.6.4-1.1.9-1.7 1.3.6-.4 1.2-.9 1.7-1.3zM585.5 569.6c-.2.3-.5.7-.7 1 .3-.4.5-.7.7-1zM517.3 635.4c-.5.4-1.1.7-1.6 1.1.5-.3 1-.7 1.6-1.1zM541.4 617.3c-.5.4-1 .9-1.6 1.3.5-.4 1-.9 1.6-1.3zM592.7 558.6c-.2.3-.3.5-.5.8.2-.2.4-.5.5-.8zM521.5 632.5c-.6.4-1.1.8-1.7 1.2.6-.4 1.2-.8 1.7-1.2zM525.7 629.6c-.6.4-1.1.8-1.7 1.2.6-.4 1.1-.8 1.7-1.2zM529.7 626.6c-.6.4-1.1.8-1.7 1.3.6-.5 1.2-.9 1.7-1.3zM590.4 562.3l-.6.9c.3-.3.4-.6.6-.9zM574.6 583.9c-.3.4-.6.8-1 1.1.4-.4.7-.8 1-1.1zM562.3 597.7c-.4.4-.8.8-1.2 1.3.4-.5.8-.9 1.2-1.3zM565.5 594.3c-.4.4-.8.8-1.1 1.2.4-.4.7-.8 1.1-1.2zM577.5 580.3c-.3.4-.6.7-.9 1.1.3-.3.6-.7.9-1.1zM568.6 590.8c-.4.4-.7.8-1.1 1.2.4-.4.8-.8 1.1-1.2zM512.7 638.4c-.5.3-.9.6-1.4.9.5-.3 1-.6 1.4-.9zM571.7 587.4c-.3.4-.7.8-1 1.2.3-.4.6-.8 1-1.2zM582.9 573.2c-.3.3-.5.7-.8 1 .3-.3.6-.7.8-1zM548.7 610.9c-.5.4-1 .9-1.5 1.3.5-.4 1-.8 1.5-1.3zM545.1 614.1c-.5.4-1 .9-1.5 1.3.5-.4 1-.8 1.5-1.3zM580.2 576.8c-.3.4-.5.7-.8 1.1.3-.4.6-.8.8-1.1zM552.2 607.7c-.5.4-.9.9-1.4 1.3.5-.5 1-.9 1.4-1.3zM555.7 604.4l-1.3 1.3c.4-.5.8-.9 1.3-1.3zM559 601c-.4.4-.8.9-1.3 1.3.5-.4.9-.8 1.3-1.3zM260.9 614.5c-.1-.4-.3-.7-.4-1.1.1.3.3.7.4 1.1zM595 554.9c-.1.2-.3.5-.4.7.1-.2.2-.4.4-.7zM599.1 547.5l-.3.6.3-.6zM262.1 617.5l-.6-1.5.6 1.5zM259.2 609.6c-.1-.3-.2-.5-.3-.8.1.3.2.5.3.8zM257.5 603.7c-.1-.3-.1-.5-.2-.8.1.3.2.5.2.8zM258.3 606.7c-.1-.3-.2-.6-.2-.9.1.3.2.6.2.9zM263.4 620.5c-.2-.5-.5-1.1-.7-1.6.2.5.5 1 .7 1.6zM602.9 540.1c-.1.1-.1.2-.2.3.1-.1.2-.2.2-.3zM256.8 600.6c0-.2-.1-.4-.1-.5 0 .1.1.3.1.5zM601.1 543.8c-.1.1-.2.3-.2.4 0-.1.1-.3.2-.4zM604.7 536.3c0 .1-.1.1-.1.2 0-.1 0-.1.1-.2zM597.1 551.2c-.1.2-.2.4-.4.6.2-.1.3-.3.4-.6zM266.5 626.5c-.3-.6-.7-1.2-1-1.9.3.6.6 1.3 1 1.9zM264.9 623.4c-.3-.6-.6-1.1-.8-1.7.2.6.5 1.2.8 1.7zM268.7 630.2c-.6-.9-1.1-1.9-1.6-2.8.4 1 1 1.9 1.6 2.8z"/><path class="st1" d="M606.3 532.5c-.5 1.3-1.1 2.5-1.6 3.8 0 .1-.1.1-.1.2-.5 1.2-1.1 2.4-1.7 3.6-.1.1-.1.2-.2.3-.5 1.1-1.1 2.3-1.7 3.4-.1.1-.2.3-.2.4-.6 1.1-1.1 2.2-1.7 3.3l-.3.6c-.6 1.1-1.1 2.1-1.7 3.2-.1.2-.2.4-.4.6-.6 1-1.2 2-1.8 3.1-.1.2-.3.5-.4.7l-1.8 3c-.2.3-.3.5-.5.8-.6 1-1.2 1.9-1.8 2.9l-.6.9c-.6.9-1.2 1.9-1.8 2.8l-.6.9c-.6.9-1.2 1.8-1.9 2.7-.2.3-.5.7-.7 1-.6.9-1.3 1.8-1.9 2.6-.3.3-.5.7-.8 1-.6.9-1.3 1.7-1.9 2.6-.3.4-.5.7-.8 1.1-.6.8-1.3 1.7-2 2.5-.3.4-.6.7-.9 1.1-.7.8-1.3 1.6-2 2.4-.3.4-.6.8-1 1.1-.7.8-1.3 1.6-2 2.4-.3.4-.7.8-1 1.2-.7.8-1.3 1.5-2 2.3-.4.4-.7.8-1.1 1.2-.7.7-1.4 1.5-2 2.2-.4.4-.8.8-1.1 1.2-.7.7-1.4 1.4-2.1 2.2-.4.4-.8.8-1.2 1.3l-2.1 2.1c-.4.4-.8.9-1.3 1.3l-2.1 2.1-1.3 1.3c-.7.7-1.4 1.3-2.1 2-.5.4-.9.9-1.4 1.3-.7.7-1.4 1.3-2.1 1.9-.5.4-1 .9-1.5 1.3-.7.6-1.4 1.3-2.2 1.9-.5.4-1 .9-1.5 1.3-.7.6-1.5 1.2-2.2 1.9-.5.4-1 .9-1.6 1.3-.7.6-1.5 1.2-2.2 1.8-.5.4-1.1.9-1.6 1.3-.7.6-1.5 1.2-2.3 1.8-.6.4-1.1.9-1.7 1.3-.8.6-1.5 1.2-2.3 1.7-.6.4-1.1.8-1.7 1.3-.8.6-1.6 1.2-2.4 1.7-.6.4-1.1.8-1.7 1.2-.8.6-1.6 1.1-2.4 1.7-.6.4-1.1.8-1.7 1.2-.9.6-1.7 1.2-2.6 1.8-.5.4-1.1.7-1.6 1.1-1 .6-1.9 1.3-2.9 1.9-.5.3-.9.6-1.4.9-1.4.9-2.9 1.8-4.4 2.7-92.7 56.9-199.4 51.6-238.3-11.8-.6-.9-1.1-1.9-1.6-2.8-.2-.3-.4-.6-.5-1-.3-.6-.7-1.2-1-1.9l-.6-1.2c-.3-.6-.6-1.1-.8-1.7-.2-.4-.4-.9-.6-1.3-.2-.5-.5-1.1-.7-1.6s-.4-.9-.6-1.4l-.6-1.5-.6-1.5c-.1-.4-.3-.7-.4-1.1-.5-1.3-.9-2.5-1.3-3.8-.1-.3-.2-.5-.3-.8l-.6-2.1c-.1-.3-.2-.6-.2-.9-.2-.7-.4-1.4-.6-2.2-.1-.3-.1-.5-.2-.8-.2-.8-.4-1.5-.5-2.3 0-.2-.1-.4-.1-.5-1-4.7-1.7-9.4-2-14.3L207 593l186.9 186.9L676 522l-69.7 10.5z"/><path class="st2" d="M254.4 577.8c0 1.8.1 6.2.3 8 .3 4.8 1 9.6 2 14.3 0 .2.1.4.1.5.2.8.3 1.5.5 2.3.1.3.1.5.2.8.2.7.4 1.4.6 2.2.1.3.2.6.2.9l.6 2.1c.1.3.2.5.3.8.4 1.3.8 2.5 1.3 3.8.1.4.3.7.4 1.1l.6 1.5.6 1.5c.2.5.4.9.6 1.4s.5 1.1.7 1.6c.2.4.4.9.6 1.3.3.6.5 1.1.8 1.7l.6 1.2c.3.6.7 1.2 1 1.9.2.3.3.6.5 1 .5.9 1.1 1.9 1.6 2.8 38.9 63.4 145.6 68.7 238.3 11.8 1.5-.9 2.9-1.8 4.4-2.7.5-.3.9-.6 1.4-.9 1-.6 1.9-1.3 2.9-1.9.5-.4 1.1-.7 1.6-1.1.9-.6 1.7-1.2 2.6-1.8.6-.4 1.1-.8 1.7-1.2.8-.6 1.6-1.1 2.4-1.7.6-.4 1.1-.8 1.7-1.2.8-.6 1.6-1.1 2.4-1.7.6-.4 1.1-.8 1.7-1.3.8-.6 1.5-1.2 2.3-1.7.6-.4 1.1-.9 1.7-1.3.8-.6 1.5-1.2 2.3-1.8.5-.4 1.1-.9 1.6-1.3.7-.6 1.5-1.2 2.2-1.8.5-.4 1-.9 1.6-1.3.7-.6 1.5-1.2 2.2-1.9.5-.4 1-.9 1.5-1.3.7-.6 1.4-1.3 2.2-1.9.5-.4 1-.9 1.5-1.3.7-.6 1.4-1.3 2.1-1.9.5-.4.9-.9 1.4-1.3.7-.7 1.4-1.3 2.1-2l1.3-1.3 2.1-2.1c.4-.4.8-.9 1.3-1.3l2.1-2.1c.4-.4.8-.8 1.2-1.3.7-.7 1.4-1.4 2.1-2.2.4-.4.8-.8 1.1-1.2.7-.7 1.4-1.5 2-2.2.4-.4.7-.8 1.1-1.2.7-.8 1.3-1.5 2-2.3.3-.4.7-.8 1-1.2.7-.8 1.3-1.6 2-2.4.3-.4.6-.8 1-1.1.7-.8 1.3-1.6 2-2.4.3-.4.6-.7.9-1.1.7-.8 1.3-1.7 2-2.5.3-.4.5-.7.8-1.1.6-.9 1.3-1.7 1.9-2.6.3-.3.5-.7.8-1 .6-.9 1.3-1.8 1.9-2.6.2-.3.5-.7.7-1 .6-.9 1.3-1.8 1.9-2.7l.6-.9c.6-.9 1.2-1.9 1.8-2.8l.6-.9c.6-1 1.2-1.9 1.8-2.9.2-.3.3-.5.5-.8l1.8-3c.1-.2.3-.5.4-.7.6-1 1.2-2 1.8-3.1.1-.2.2-.4.4-.6.6-1.1 1.2-2.1 1.7-3.2l.3-.6c.6-1.1 1.2-2.2 1.7-3.3.1-.1.2-.3.2-.4.6-1.1 1.1-2.3 1.7-3.4.1-.1.1-.2.2-.3.6-1.2 1.1-2.4 1.7-3.6 0-.1.1-.1.1-.2.6-1.3 4-9.8 4.6-11.1l-2.9 7.3"/><path class="st3" d="M573.7 585c-.7.8-1.3 1.6-2 2.4.6-.8 1.3-1.6 2-2.4zM576.6 581.4c-.7.8-1.3 1.6-2 2.4.7-.7 1.3-1.5 2-2.4zM579.4 577.8c-.6.8-1.3 1.7-2 2.5.7-.8 1.4-1.6 2-2.5zM604.6 536.5c-.5 1.2-1.1 2.4-1.7 3.6.6-1.2 1.1-2.4 1.7-3.6zM587.4 566.9c-.6.9-1.2 1.8-1.9 2.7.7-.9 1.3-1.8 1.9-2.7zM596.7 551.9c-.6 1-1.2 2-1.8 3.1.7-1.1 1.3-2.1 1.8-3.1zM592.3 559.4c-.6 1-1.2 1.9-1.8 2.9.5-1 1.2-1.9 1.8-2.9zM594.5 555.7l-1.8 3c.7-1.1 1.3-2 1.8-3zM598.8 548.1c-.6 1.1-1.1 2.1-1.7 3.2.6-1.1 1.2-2.2 1.7-3.2zM602.8 540.4c-.5 1.1-1.1 2.3-1.7 3.4.6-1.1 1.1-2.3 1.7-3.4zM582.2 574.2c-.6.9-1.3 1.7-1.9 2.6.6-.9 1.2-1.7 1.9-2.6zM589.9 563.2c-.6.9-1.2 1.9-1.8 2.8.5-1 1.2-1.9 1.8-2.8zM584.8 570.6c-.6.9-1.3 1.8-1.9 2.6.7-.9 1.3-1.8 1.9-2.6zM600.9 544.2c-.6 1.1-1.1 2.2-1.7 3.3.5-1.1 1.1-2.2 1.7-3.3zM260.5 613.4zM265.5 624.6l-.6-1.2.6 1.2zM264 621.8c-.2-.4-.4-.9-.6-1.3.2.4.4.8.6 1.3zM267 627.4c-.2-.3-.4-.6-.5-1 .2.4.3.7.5 1zM519.9 633.7c-.9.6-1.7 1.2-2.6 1.8.8-.6 1.7-1.2 2.6-1.8zM515.6 636.5c-1 .6-1.9 1.3-2.9 1.9 1-.6 2-1.2 2.9-1.9zM511.3 639.3c-1.4.9-2.9 1.8-4.4 2.7 1.5-.8 3-1.7 4.4-2.7zM262.7 618.9c-.2-.5-.4-.9-.6-1.4.2.4.4.9.6 1.4zM604.7 536.3c.6-1.3 1.1-2.5 1.6-3.8-.5 1.3-1.1 2.6-1.6 3.8zM261.5 616l-.6-1.5.6 1.5zM257.3 602.9c-.2-.8-.4-1.5-.5-2.3.2.8.3 1.5.5 2.3zM254.7 585.8c.3 4.8 1 9.6 2 14.3-1-4.7-1.7-9.5-2-14.3M259 608.8l-.6-2.1c.1.7.3 1.4.6 2.1zM258.1 605.8c-.2-.7-.4-1.4-.6-2.2.2.8.4 1.5.6 2.2zM550.8 609c-.7.7-1.4 1.3-2.1 1.9.7-.6 1.4-1.3 2.1-1.9zM561.1 598.9L559 601l2.1-2.1zM557.8 602.3l-2.1 2.1 2.1-2.1zM570.7 588.5c-.7.8-1.3 1.5-2 2.3.6-.7 1.3-1.5 2-2.3zM554.3 605.7c-.7.7-1.4 1.3-2.1 2 .7-.7 1.4-1.4 2.1-2zM567.6 592c-.7.7-1.4 1.5-2 2.2.6-.7 1.3-1.4 2-2.2zM564.4 595.5c-.7.7-1.4 1.4-2.1 2.2.7-.7 1.4-1.5 2.1-2.2zM547.2 612.2c-.7.6-1.4 1.3-2.2 1.9.8-.6 1.5-1.2 2.2-1.9zM536 621.7c-.7.6-1.5 1.2-2.3 1.8.8-.6 1.5-1.2 2.3-1.8zM532 624.8c-.8.6-1.5 1.2-2.3 1.7.8-.5 1.6-1.1 2.3-1.7zM528.1 627.8c-.8.6-1.6 1.2-2.4 1.7.8-.5 1.6-1.1 2.4-1.7zM543.6 615.4c-.7.6-1.5 1.2-2.2 1.9.7-.6 1.4-1.2 2.2-1.9zM539.8 618.6c-.7.6-1.5 1.2-2.2 1.8.7-.6 1.5-1.2 2.2-1.8zM524 630.8c-.8.6-1.6 1.1-2.4 1.7.8-.6 1.6-1.1 2.4-1.7z"/></g></svg>