<svg id="レイヤー_5" xmlns="http://www.w3.org/2000/svg" viewBox="0 0 503 506.3"><style>.st0{fill:url(#SVGID_1_)}.st1{fill:#FFF}.st2{fill:url(#SVGID_2_)}.st3{fill:url(#SVGID_3_)}.st4{fill:url(#SVGID_4_)}.st5{fill:url(#SVGID_5_)}.st6{fill:url(#SVGID_6_)}.st7{fill:url(#SVGID_7_)}.st8{fill:url(#SVGID_8_)}.st9{fill:url(#SVGID_9_)}.st10{fill:url(#SVGID_10_)}.st11{fill:url(#SVGID_11_)}.st12{fill:url(#SVGID_12_)}.st13{fill:url(#SVGID_13_)}.st14{fill:url(#SVGID_14_)}.st15{fill:url(#SVGID_15_)}.st16{fill:url(#SVGID_16_)}.st17{fill:url(#SVGID_17_)}.st18{fill:url(#SVGID_18_)}</style><linearGradient id="SVGID_1_" gradientUnits="userSpaceOnUse" x1="239.805" y1="57.324" x2="268.634" y2="57.324"><stop offset="0" stop-color="#005cff"/><stop offset="1" stop-color="#0047ad"/></linearGradient><path class="st0" d="M239.8 40.4c0-16.1 6.5-29.2 14.4-29.2 8 0 14.4 13.1 14.4 29.2s-9.9 63-14.4 63c-4 0-14.4-46.8-14.4-63z"/><path class="st1" d="M244.8 26.5c-3 9.8-2.9 21.7-1.2 22.3 1.7.6.9-11.1 4.3-20.7s7.3-13.2 5.7-14.1c-1-.6-6.4 4.8-8.8 12.5z"/><linearGradient id="SVGID_2_" gradientUnits="userSpaceOnUse" x1="164.472" y1="67.999" x2="204.196" y2="67.999"><stop offset="0" stop-color="#005cff"/><stop offset="1" stop-color="#0047ad"/></linearGradient><path class="st2" d="M167.8 57.3c-5.5-15.2-3.9-29.7 3.6-32.4 7.5-2.7 18 7.4 23.5 22.5 5.5 15.2 12.3 62.6 8 64.1-3.8 1.4-29.6-39.1-35.1-54.2z"/><path class="st1" d="M167.7 42.4c.5 10.2 4.7 21.4 6.5 21.4s-3-10.7-3-20.9 2.3-14.9.5-15.2c-1.2-.2-4.4 6.7-4 14.7z"/><linearGradient id="SVGID_3_" gradientUnits="userSpaceOnUse" x1="95.067" y1="100.547" x2="157.703" y2="100.547"><stop offset="0" stop-color="#005cff"/><stop offset="1" stop-color="#0047ad"/></linearGradient><path class="st3" d="M105.8 97.7C95.4 85.4 92 71.2 98.1 66.1s19.5.8 29.8 13.1 32.9 54.6 29.4 57.5c-3 2.6-41.1-26.6-51.5-39z"/><path class="st1" d="M100.7 83.8c4 9.4 11.7 18.5 13.4 17.9 1.7-.6-6.5-9.1-10-18.6s-2.9-14.8-4.7-14.4c-1.2.1-1.8 7.7 1.3 15.1z"/><linearGradient id="SVGID_4_" gradientUnits="userSpaceOnUse" x1="42.333" y1="150.845" x2="123.297" y2="150.845"><stop offset="0" stop-color="#005cff"/><stop offset="1" stop-color="#0047ad"/></linearGradient><path class="st4" d="M61.4 156.9c-14-8.1-22.1-20.2-18.1-27.1 4-6.9 18.5-5.9 32.5 2.1s49.6 40 47.3 44c-1.9 3.5-47.7-10.9-61.7-19z"/><path class="st1" d="M51.8 145.6c7 7.5 17.3 13.4 18.7 12.2 1.4-1.2-9.2-6.3-15.8-14.1s-7.8-12.9-9.4-11.9c-.9.6 1.1 7.9 6.5 13.8z"/><linearGradient id="SVGID_5_" gradientUnits="userSpaceOnUse" x1="13.611" y1="213.736" x2="104.531" y2="213.736"><stop offset="0" stop-color="#005cff"/><stop offset="1" stop-color="#0047ad"/></linearGradient><path class="st5" d="M40 227.7c-15.9-2.8-27.7-11.4-26.3-19.3s15.4-11.9 31.3-9.1 60.3 20.7 59.5 25.1c-.7 4-48.6 6.1-64.5 3.3z"/><path class="st1" d="M27.1 220.4c9.1 4.6 20.9 6.7 21.8 5.1.9-1.6-10.8-2.8-19.7-7.8-8.9-5.1-11.8-9.5-12.9-8-.7.8 3.7 7 10.8 10.7z"/><linearGradient id="SVGID_6_" gradientUnits="userSpaceOnUse" x1="12.667" y1="287.152" x2="103.585" y2="287.152"><stop offset="0" stop-color="#005cff"/><stop offset="1" stop-color="#0047ad"/></linearGradient><path class="st6" d="M44.1 301.6c-15.9 2.8-29.9-1.3-31.3-9.1S23.2 276 39 273.2c15.9-2.8 63.7-1.2 64.5 3.3.8 3.9-43.6 22.3-59.4 25.1z"/><path class="st1" d="M29.4 299.1c10.1 1.3 21.9-.9 22.2-2.7.3-1.8-11.1 1.1-21.2-.6-10.1-1.7-14.3-4.9-14.9-3.1-.3 1 6 5.4 13.9 6.4z"/><g><linearGradient id="SVGID_7_" gradientUnits="userSpaceOnUse" x1="39.613" y1="350.686" x2="120.556" y2="350.686"><stop offset="0" stop-color="#005cff"/><stop offset="1" stop-color="#0047ad"/></linearGradient><path class="st7" d="M73.1 369.6c-14 8.1-28.5 9-32.5 2.1s4.1-19 18.1-27.1 59.5-22.9 61.8-19c2 3.5-33.4 36-47.4 44z"/><path class="st1" d="M58.5 372.3c10-2.3 20.3-8.3 19.9-10.1-.3-1.8-10 4.8-20.1 6.6s-15.1.3-15 2.2c.1 1.1 7.4 3.1 15.2 1.3z"/></g><g><linearGradient id="SVGID_8_" gradientUnits="userSpaceOnUse" x1="90.9" y1="402.236" x2="153.466" y2="402.236"><stop offset="0" stop-color="#005cff"/><stop offset="1" stop-color="#0047ad"/></linearGradient><path class="st8" d="M123.7 423.6c-10.4 12.4-23.7 18.2-29.8 13.1-6.1-5.1-2.6-19.3 7.7-31.6s48-41.9 51.5-39c3.2 2.6-19 45.1-29.4 57.5z"/><path class="st1" d="M110.9 431.1c8.6-5.6 16.2-14.7 15.3-16.3-.9-1.6-7.8 8-16.6 13.1s-14.1 5.5-13.4 7.2c.4 1 8 .3 14.7-4z"/></g><g><linearGradient id="SVGID_9_" gradientUnits="userSpaceOnUse" x1="159.36" y1="436.436" x2="198.889" y2="436.436"><stop offset="0" stop-color="#005cff"/><stop offset="1" stop-color="#0047ad"/></linearGradient><path class="st9" d="M189.7 457c-5.5 15.2-16.1 25.2-23.5 22.5-7.5-2.7-9.1-17.2-3.6-32.4s30.8-55.8 35.1-54.3c3.8 1.5-2.4 49.1-8 64.2z"/><path class="st1" d="M180.2 468.5c6.2-8.2 10.2-19.4 8.8-20.6-1.4-1.2-4.6 10.1-11.1 18s-11.4 10-10.1 11.3c.7.8 7.6-2.4 12.4-8.7z"/></g><g><linearGradient id="SVGID_10_" gradientUnits="userSpaceOnUse" x1="234.366" y1="448.976" x2="263.195" y2="448.976"><stop offset="0" stop-color="#005cff"/><stop offset="1" stop-color="#0047ad"/></linearGradient><path class="st10" d="M263.2 465.9c0 16.1-6.5 29.2-14.4 29.2-8 0-14.4-13.1-14.4-29.2s9.9-63 14.4-63c4 0 14.4 46.8 14.4 63z"/><path class="st1" d="M258.2 479.8c3-9.8 2.9-21.7 1.2-22.3-1.7-.6-.9 11.1-4.3 20.7-3.5 9.6-7.3 13.2-5.7 14.1 1 .6 6.4-4.8 8.8-12.5z"/></g><g><linearGradient id="SVGID_11_" gradientUnits="userSpaceOnUse" x1="298.804" y1="438.301" x2="338.528" y2="438.301"><stop offset="0" stop-color="#005cff"/><stop offset="1" stop-color="#0047ad"/></linearGradient><path class="st11" d="M335.2 449c5.5 15.2 3.9 29.7-3.6 32.4-7.5 2.7-18-7.4-23.5-22.5s-12.3-62.6-8-64.1c3.8-1.4 29.6 39.1 35.1 54.2z"/><path class="st1" d="M335.3 463.9c-.5-10.2-4.7-21.4-6.5-21.4s3 10.7 3 20.9-2.3 14.9-.5 15.2c1.2.2 4.4-6.7 4-14.7z"/></g><g><linearGradient id="SVGID_12_" gradientUnits="userSpaceOnUse" x1="345.297" y1="405.753" x2="407.933" y2="405.753"><stop offset="0" stop-color="#005cff"/><stop offset="1" stop-color="#0047ad"/></linearGradient><path class="st12" d="M397.2 408.6c10.4 12.4 13.8 26.5 7.7 31.6-6.1 5.1-19.5-.8-29.8-13.1-10.4-12.4-32.9-54.6-29.4-57.5 3-2.6 41.1 26.6 51.5 39z"/><path class="st1" d="M402.3 422.5c-4-9.4-11.7-18.5-13.4-17.9s6.5 9.1 10 18.6c3.5 9.6 2.9 14.8 4.7 14.4 1.2-.1 1.8-7.7-1.3-15.1z"/></g><g><linearGradient id="SVGID_13_" gradientUnits="userSpaceOnUse" x1="379.703" y1="355.455" x2="460.667" y2="355.455"><stop offset="0" stop-color="#005cff"/><stop offset="1" stop-color="#0047ad"/></linearGradient><path class="st13" d="M441.6 349.4c14 8.1 22.1 20.2 18.1 27.1-4 6.9-18.5 5.9-32.5-2.1-14-8.1-49.6-40-47.3-44 1.9-3.5 47.7 10.9 61.7 19z"/><path class="st1" d="M451.2 360.7c-7-7.5-17.3-13.4-18.7-12.2-1.4 1.2 9.2 6.3 15.8 14.1 6.6 7.8 7.8 12.9 9.4 11.9.9-.6-1.1-7.9-6.5-13.8z"/></g><g><linearGradient id="SVGID_14_" gradientUnits="userSpaceOnUse" x1="398.469" y1="292.564" x2="489.389" y2="292.564"><stop offset="0" stop-color="#005cff"/><stop offset="1" stop-color="#0047ad"/></linearGradient><path class="st14" d="M463 278.6c15.9 2.8 27.7 11.4 26.3 19.3-1.4 7.8-15.4 11.9-31.3 9.1-15.9-2.8-60.3-20.7-59.5-25.1.7-4 48.6-6.1 64.5-3.3z"/><path class="st1" d="M475.9 285.9c-9.1-4.6-20.9-6.7-21.8-5.1-.9 1.6 10.8 2.8 19.7 7.8 8.9 5.1 11.8 9.5 12.9 8 .7-.8-3.7-7-10.8-10.7z"/></g><g><linearGradient id="SVGID_15_" gradientUnits="userSpaceOnUse" x1="399.415" y1="219.148" x2="490.333" y2="219.148"><stop offset="0" stop-color="#005cff"/><stop offset="1" stop-color="#0047ad"/></linearGradient><path class="st15" d="M458.9 204.7c15.9-2.8 29.9 1.3 31.3 9.1s-10.4 16.5-26.3 19.3c-15.9 2.8-63.7 1.2-64.5-3.3-.7-3.9 43.7-22.3 59.5-25.1z"/><path class="st1" d="M473.6 207.2c-10.1-1.3-21.9.9-22.2 2.7-.3 1.8 11.1-1.1 21.2.6 10.1 1.7 14.3 4.9 14.9 3.1.3-1-6-5.4-13.9-6.4z"/></g><g><linearGradient id="SVGID_16_" gradientUnits="userSpaceOnUse" x1="382.444" y1="155.614" x2="463.387" y2="155.614"><stop offset="0" stop-color="#005cff"/><stop offset="1" stop-color="#0047ad"/></linearGradient><path class="st16" d="M429.9 136.7c14-8.1 28.5-9 32.5-2.1s-4.1 19-18.1 27.1c-14 8.1-59.5 22.9-61.8 19-2-3.5 33.4-36 47.4-44z"/><path class="st1" d="M444.5 134c-10 2.3-20.3 8.3-19.9 10.1.3 1.8 10-4.8 20.1-6.6 10.1-1.8 15.1-.3 15-2.2-.1-1.1-7.4-3.1-15.2-1.3z"/></g><g><linearGradient id="SVGID_17_" gradientUnits="userSpaceOnUse" x1="349.534" y1="104.064" x2="412.1" y2="104.064"><stop offset="0" stop-color="#005cff"/><stop offset="1" stop-color="#0047ad"/></linearGradient><path class="st17" d="M379.3 82.7c10.4-12.4 23.7-18.2 29.8-13.1s2.6 19.3-7.7 31.6-48 41.9-51.5 39c-3.2-2.6 19-45.1 29.4-57.5z"/><path class="st1" d="M392.1 75.2c-8.6 5.6-16.2 14.7-15.3 16.3.9 1.6 7.8-8 16.6-13.1s14.1-5.5 13.4-7.2c-.4-1-8-.3-14.7 4z"/></g><g><linearGradient id="SVGID_18_" gradientUnits="userSpaceOnUse" x1="304.111" y1="69.864" x2="343.64" y2="69.864"><stop offset="0" stop-color="#005cff"/><stop offset="1" stop-color="#0047ad"/></linearGradient><path class="st18" d="M313.3 49.3c5.5-15.2 16.1-25.2 23.5-22.5s9.1 17.2 3.6 32.4-30.8 55.8-35.1 54.3c-3.8-1.5 2.4-49.1 8-64.2z"/><path class="st1" d="M322.8 37.8c-6.2 8.2-10.2 19.4-8.8 20.6s4.6-10.1 11.1-18 11.4-10 10.1-11.3c-.7-.8-7.6 2.4-12.4 8.7z"/></g></svg>