<?xml version="1.0" encoding="utf-8"?>
<!-- Generator: Adobe Illustrator 19.1.0, SVG Export Plug-In . SVG Version: 6.00 Build 0)  -->
<svg version="1.1" id="Layer_1" xmlns="http://www.w3.org/2000/svg" xmlns:xlink="http://www.w3.org/1999/xlink" x="0px" y="0px"
	 viewBox="-229 31 500 500" style="enable-background:new -229 31 500 500;" xml:space="preserve">
<style type="text/css">
	.st0{clip-path:url(#SVGID_3_);}
	.st1{fill:#D6C9B5;}
	.st2{fill:#5D4D48;}
	.st3{clip-path:url(#SVGID_5_);}
	.st4{clip-path:url(#SVGID_7_);fill:#EE4741;}
	.st5{clip-path:url(#SVGID_9_);fill:#FFD134;}
	.st6{clip-path:url(#SVGID_11_);fill:#BBDB9B;}
	.st7{clip-path:url(#SVGID_13_);fill:#4B8BC9;}
	.st8{fill:#3B241B;}
	.st9{fill:url(#SVGID_14_);}
	.st10{fill:none;}
	.st11{display:none;fill:#675851;}
	.st12{fill:#E4DFD6;}
	.st13{fill:url(#SVGID_15_);stroke:#58595B;stroke-width:6;stroke-miterlimit:10;}
	.st14{fill:#546469;}
	.st15{fill:url(#SVGID_16_);}
	.st16{display:none;fill:#FFFFFF;enable-background:new    ;}
	.st17{font-family:'TimesNewRomanPS-BoldMT';}
	.st18{font-size:35.8254px;}
	.st19{display:none;fill:none;stroke:#FFFFFF;stroke-miterlimit:10;enable-background:new    ;}
	.st20{opacity:0.2;fill:#FFFFFF;enable-background:new    ;}
	.st21{opacity:0.4;fill:#FFFFFF;enable-background:new    ;}
</style>
<g>
	<g>
		<defs>
			<path id="SVGID_2_" d="M176,531h-310c-52.2,0-95-42.8-95-95V126c0-52.2,42.8-95,95-95h310c52.2,0,95,42.8,95,95v310
				C271,488.2,228.2,531,176,531z"/>
		</defs>
		<clipPath id="SVGID_3_">
			<use xlink:href="#SVGID_2_"  style="overflow:visible;"/>
		</clipPath>
		<g class="st0">
			<path class="st1" d="M271,443.2c0,49.5-40.4,89.6-90.3,89.6h-319.4c-49.8,0-90.3-40.1-90.3-89.6V118.8
				c0-49.5,40.4-89.6,90.3-89.6h319.4c49.8,0,90.3,40.1,90.3,89.6V443.2L271,443.2z"/>
			<g>
				<g>
					<path id="SVGID_1_" class="st2" d="M180.7,29.2h-319.4c-49.8,0-90.3,40.1-90.3,89.6v67.9h500v-67.9
						C271,69.3,230.5,29.2,180.7,29.2z"/>
				</g>
				<g>
					<g>
						<g>
							<g>
								<defs>
									<rect id="SVGID_4_" x="-252" y="6" width="532" height="181"/>
								</defs>
								<clipPath id="SVGID_5_">
									<use xlink:href="#SVGID_4_"  style="overflow:visible;"/>
								</clipPath>
								<g class="st3">
									<g>
										<g>
											<defs>
												<path id="SVGID_6_" d="M180.7,29.2h-319.4c-49.8,0-90.3,41.5-90.3,92.8v70.3h500V122C271,70.7,230.5,29.2,180.7,29.2z"
													/>
											</defs>
											<clipPath id="SVGID_7_">
												<use xlink:href="#SVGID_6_"  style="overflow:visible;"/>
											</clipPath>
											<rect x="-195.3" y="18.6" class="st4" width="24" height="168.8"/>
										</g>
									</g>
								</g>
								<g class="st3">
									<g>
										<g>
											<defs>
												<path id="SVGID_8_" d="M180.7,29.2h-319.4c-49.8,0-90.3,41.5-90.3,92.8v70.3h500V122C271,70.7,230.5,29.2,180.7,29.2z"
													/>
											</defs>
											<clipPath id="SVGID_9_">
												<use xlink:href="#SVGID_8_"  style="overflow:visible;"/>
											</clipPath>
											<rect x="-171.3" y="18.6" class="st5" width="24" height="168.8"/>
										</g>
									</g>
								</g>
								<g class="st3">
									<g>
										<g>
											<defs>
												<path id="SVGID_10_" d="M180.7,29.2h-319.4c-49.8,0-90.3,41.5-90.3,92.8v70.3h500V122C271,70.7,230.5,29.2,180.7,29.2z"
													/>
											</defs>
											<clipPath id="SVGID_11_">
												<use xlink:href="#SVGID_10_"  style="overflow:visible;"/>
											</clipPath>
											<rect x="-147.6" y="18.6" class="st6" width="24" height="168.8"/>
										</g>
									</g>
								</g>
								<g class="st3">
									<g>
										<g>
											<g>
												<defs>
													<path id="SVGID_12_" d="M180.7,29.2h-319.4c-49.8,0-90.3,41.5-90.3,92.8v70.3h500V122C271,70.7,230.5,29.2,180.7,29.2z
														"/>
												</defs>
												<clipPath id="SVGID_13_">
													<use xlink:href="#SVGID_12_"  style="overflow:visible;"/>
												</clipPath>
												<rect x="-123.7" y="18.6" class="st7" width="24" height="168.8"/>
											</g>
										</g>
									</g>
								</g>
							</g>
							<path class="st8" d="M234,139.8c0,12.4-9.9,22.2-22.2,22.2h-56.7c-12.4,0-22.2-9.9-22.2-22.2V83.2c0-12.4,9.9-22.2,22.2-22.2
								h56.7c12.4,0,22.2,9.9,22.2,22.2V139.8z"/>
							
								<radialGradient id="SVGID_14_" cx="183.4" cy="103.5" r="31.4" gradientTransform="matrix(1 0 0 1 0 8)" gradientUnits="userSpaceOnUse">
								<stop  offset="0" style="stop-color:#FFFFFF;stop-opacity:0.6"/>
								<stop  offset="0.5337" style="stop-color:#585565"/>
								<stop  offset="1" style="stop-color:#1D253E"/>
							</radialGradient>
							<circle class="st9" cx="183.4" cy="111.5" r="31.4"/>
							<path class="st10" d="M180.7,29.2h-319.4c-49.8,0-90.3,40.1-90.3,89.6v67.9h500v-67.9C271,69.3,230.5,29.2,180.7,29.2z"/>
							<path class="st11" d="M-90.6,196.2c0,12.4-9.9,22.2-22.2,22.2h-65.6c-12.4,0-22.2-9.9-22.2-22.2v-5.1
								c0-12.4,9.9-22.2,22.2-22.2h65.6c12.4,0,22.2,9.9,22.2,22.2L-90.6,196.2L-90.6,196.2z"/>
							<circle class="st12" cx="21.1" cy="280.3" r="131.5"/>
							
								<radialGradient id="SVGID_15_" cx="21.1" cy="272.3" r="111.8" gradientTransform="matrix(1 0 0 1 0 8)" gradientUnits="userSpaceOnUse">
								<stop  offset="0" style="stop-color:#FFFFFF"/>
								<stop  offset="0.5337" style="stop-color:#6D9BB7"/>
								<stop  offset="1" style="stop-color:#1D253E"/>
							</radialGradient>
							<circle class="st13" cx="21.1" cy="280.3" r="111.8"/>
							<circle class="st14" cx="21.1" cy="280.3" r="62"/>
							
								<radialGradient id="SVGID_16_" cx="21.1" cy="272.3" r="57.4" gradientTransform="matrix(1 0 0 1 0 8)" gradientUnits="userSpaceOnUse">
								<stop  offset="0" style="stop-color:#FFFFFF"/>
								<stop  offset="0.5337" style="stop-color:#585565"/>
								<stop  offset="1" style="stop-color:#1D253E"/>
							</radialGradient>
							<circle class="st15" cx="21.1" cy="280.3" r="57.4"/>
							<text transform="matrix(1 0 0 1 -186.8135 204.4297)" class="st16 st17 st18">Insta</text>
							<text transform="matrix(1 0 0 1 -186.8135 204.4297)" class="st19 st17 st18">Insta</text>
							<path class="st20" d="M-9.8,360.7c0,9.8,1.2,19.2,3.6,28.2c8.7,2.1,17.8,3.3,27.3,3.3c61.7,0,111.8-50.1,111.8-111.8
								c0-8.3-0.9-16.3-2.6-24.1c-9.9-3-20.4-4.5-31.4-4.5C38.9,251.8-9.8,300.5-9.8,360.7z"/>
							<path class="st21" d="M-50.2,212.2l21,20.1c7.7-8.1,17.3-14.2,28.2-17.8l-9.3-27.6C-25.5,191.9-39.2,200.7-50.2,212.2z"/>
							<path class="st21" d="M-71.8,247.2l27.4,9.8c2.3-6.2,5.3-12.1,9.2-17.2l-23.7-17C-64.3,230.1-68.6,238.4-71.8,247.2z"/>
							<path class="st21" d="M194.8,86.2l-7.4,13.1c2.9,1.7,5.6,3.8,8,6.2L206.2,95C203,91.5,199.1,88.5,194.8,86.2z"/>
						</g>
					</g>
				</g>
			</g>
		</g>
	</g>
</g>
</svg>
