<?xml version="1.0" encoding="utf-8"?>
<!-- Generator: Adobe Illustrator 19.1.0, SVG Export Plug-In . SVG Version: 6.00 Build 0)  -->
<svg version="1.1" id="Layer_1" xmlns="http://www.w3.org/2000/svg" xmlns:xlink="http://www.w3.org/1999/xlink" x="0px" y="0px"
	 viewBox="-249 251 500 500" style="enable-background:new -249 251 500 500;" xml:space="preserve">
<style type="text/css">
	.st0{clip-path:url(#SVGID_2_);fill:url(#SVGID_3_);}
</style>
<g>
	<defs>
		<path id="SVGID_1_" d="M156,751h-310c-52.2,0-95-42.8-95-95V346c0-52.2,42.8-95,95-95h310c52.2,0,95,42.8,95,95v310
			C251,708.2,208.2,751,156,751z"/>
	</defs>
	<clipPath id="SVGID_2_">
		<use xlink:href="#SVGID_1_"  style="overflow:visible;"/>
	</clipPath>
	<linearGradient id="SVGID_3_" gradientUnits="userSpaceOnUse" x1="1" y1="751" x2="1" y2="251">
		<stop  offset="0" style="stop-color:#616B6D"/>
		<stop  offset="1" style="stop-color:#B8CBCF"/>
	</linearGradient>
	<path class="st0" d="M-249,251v500h500V251H-249z M134.9,583.9c-24.9,17.9-53,27.8-84.4,29.9c4.9,4.2,9.3,10.3,13,18.5
		c3.7,8.1,5.6,18.5,5.6,30.9l-0.5,73.3c0,3.8,1.4,7.2,4.2,10.1c1.3,1.4,3,2.3,5.1,2.8l9.1,0.1c-3.6,0.6-6.7,0.5-9.1-0.1L-76.5,748
		c-2.4,0.5-5.2,0.4-8.5-0.1l8.5,0.1c2.4-0.5,4.4-1.4,5.8-2.9c2.8-2.9,4.2-6.3,4.2-10.1l-0.5-49.4c-27.2,5.2-48.2,4.1-63-3.4
		c-14.8-7.5-24.3-16.7-28.6-27.8c-2.8-7.3-6.4-14.3-10.8-21.1c-4.4-6.8-10.8-12.9-19.3-18.5c-8.5-5.5-11.9-9.7-10.3-12.5
		c1.6-2.8,5.7-3.8,12.4-3.1c7.8,0.7,15.3,3.1,22.5,7.3c7.2,4.2,13.7,10.9,19.3,20.3c12.3,18.4,26.3,27.9,41.8,28.6
		c15.5,0.7,27.9-1.4,37-6.2c1.4-8.7,3.7-15.9,6.9-21.8c3.2-5.9,6.7-10.4,10.6-13.5c-31.4-2.1-59.5-12.1-84.1-30.2
		c-24.7-18-37.8-51.8-39.2-101.4c0-14.6,2.5-27.8,7.4-39.8c4.9-12,11.8-22.4,20.6-31.5c-2.1-3.5-3.9-11.4-5.3-23.9
		c-1.4-12.5,1.2-28.1,7.9-46.8c0-1,6-0.8,18,0.8c12,1.6,30.9,10.5,56.6,26.8c22.2-5.9,44.9-8.8,68-8.8c23.1,0,45.6,2.9,67.5,8.8
		c25.7-16.3,44.6-25.2,56.6-26.8c12-1.6,18-1.8,18-0.8c6.7,18.7,9.3,34.3,7.9,46.8c-1.4,12.5-3.2,20.5-5.3,23.9
		c8.8,9.4,15.7,20,20.6,32c4.9,12,7.4,25,7.4,39.3C172.9,532.2,159.8,566.1,134.9,583.9z"/>
</g>
</svg>
