<?xml version="1.0" encoding="utf-8"?>
<!-- Generator: Adobe Illustrator 19.1.0, SVG Export Plug-In . SVG Version: 6.00 Build 0)  -->
<svg version="1.1" id="Layer_1" xmlns="http://www.w3.org/2000/svg" xmlns:xlink="http://www.w3.org/1999/xlink" x="0px" y="0px"
	 viewBox="-229 31 500 500" style="enable-background:new -229 31 500 500;" xml:space="preserve">
<style type="text/css">
	.st0{clip-path:url(#SVGID_2_);}
	.st1{clip-path:url(#SVGID_4_);}
	.st2{fill:url(#SVGID_5_);}
	.st3{fill:#FFFFFF;}
</style>
<g>
	<defs>
		<path id="SVGID_1_" d="M176,531h-310c-52.2,0-95-42.8-95-95V126c0-52.2,42.8-95,95-95h310c52.2,0,95,42.8,95,95v310
			C271,488.2,228.2,531,176,531z"/>
	</defs>
	<clipPath id="SVGID_2_">
		<use xlink:href="#SVGID_1_"  style="overflow:visible;"/>
	</clipPath>
	<g class="st0">
		<g>
			<g>
				<defs>
					<path id="SVGID_3_" d="M270.9,443.1c0,49.6-40.3,89.6-90.3,89.6h-319.3c-49.8,0-90.3-40-90.3-89.6V118.9
						c0-49.6,40.3-89.6,90.3-89.6h319.3c49.8,0,90.3,40,90.3,89.6V443.1L270.9,443.1z"/>
				</defs>
				<clipPath id="SVGID_4_">
					<use xlink:href="#SVGID_3_"  style="overflow:visible;"/>
				</clipPath>
				<g class="st1">
					<g>
						
							<linearGradient id="SVGID_5_" gradientUnits="userSpaceOnUse" x1="20.75" y1="33.1" x2="20.75" y2="536.7" gradientTransform="matrix(1 0 0 -1 0 566)">
							<stop  offset="0" style="stop-color:#016699"/>
							<stop  offset="0.2126" style="stop-color:#05699C"/>
							<stop  offset="0.3963" style="stop-color:#0F71A3"/>
							<stop  offset="0.5693" style="stop-color:#217EAF"/>
							<stop  offset="0.7358" style="stop-color:#3A91C0"/>
							<stop  offset="0.896" style="stop-color:#5AA8D6"/>
							<stop  offset="1" style="stop-color:#73BBE7"/>
						</linearGradient>
						<path class="st2" d="M-229.4,65.4c0-19.9,16.5-36.1,36.9-36.1h426.4c20.4,0,36.9,16.3,36.9,36.1v431.4
							c0,19.9-16.5,36.1-36.9,36.1h-426.2c-20.4,0-36.9-16.3-36.9-36.1V65.4H-229.4z"/>
					</g>
					<path class="st3" d="M-77.3,450.8V223.7h-75.9v227.4h75.9V450.8z M-115.3,192.7c26.3,0,42.6-17.6,42.6-39.2
						c-0.5-22.2-16.5-39.2-42.1-39.2c-26.1,0-42.6,17-42.6,39.2c0,21.7,16.5,39.2,41.8,39.2H-115.3L-115.3,192.7z"/>
					<path class="st3" d="M-35.8,450.8h75.6v-127c0-7,0.5-13.4,2.3-18.6c5.7-13.4,18.1-27.6,38.7-27.6c27.4,0,38.2,20.9,38.2,51.4
						v121.6h75.6V320.2c0-69.7-37.4-102.2-87-102.2c-40.8,0-58.6,22.7-68.7,38.5h0.5v-32.8H-36C-34.7,244.8-35.8,450.8-35.8,450.8
						L-35.8,450.8z"/>
				</g>
			</g>
		</g>
	</g>
</g>
</svg>
